<?xml version="1.0" encoding="UTF-8"?>
<svg width="732px" height="430px" viewBox="0 0 732 430" version="1.1" xmlns="http://www.w3.org/2000/svg" xmlns:xlink="http://www.w3.org/1999/xlink">
    <title>Atoms / Logo / Brand / AotG The Challenge Lockup - black</title>
    <defs>
        <filter id="filter-1">
            <feColorMatrix in="SourceGraphic" type="matrix" values="0 0 0 0 0.000000 0 0 0 0 0.000000 0 0 0 0 0.000000 0 0 0 1.000000 0"></feColorMatrix>
        </filter>
        <polygon id="path-2" points="0 2.32273413 678.208402 2.32273413 678.208402 228.130157 0 228.130157"></polygon>
    </defs>
    <g id="Atoms-/-Logo-/-Brand-/-AotG-The-Challenge-Lockup---black" stroke="none" stroke-width="1" fill="none" fill-rule="evenodd">
        <g filter="url(#filter-1)" id="Group">
            <g transform="translate(-85.000000, -74.000000)">
                <g transform="translate(-0.000000, 0.000000)" id="Atoms-/-Logo-/-Brand-/-White">
                    <g transform="translate(-0.000000, 0.000000)">
                        <g id="Group-3" transform="translate(109.609439, 93.474354)">
                            <mask id="mask-3" fill="white">
                                <use xlink:href="#path-2"></use>
                            </mask>
                            <g id="Clip-2"></g>
                            <path d="M316.596051,40.0682192 L322.920274,40.0682192 L317.559435,67.4526402 L311.484124,67.4526402 L306.123285,40.0682192 L312.986819,40.0682192 L314.664674,55.3698467 L316.596051,40.0682192 Z M291.121693,46.0632684 C291.121693,45.6971232 291.250759,45.412086 291.511195,45.2035223 C291.769327,44.9995933 292.087382,44.8953114 292.46536,44.8953114 C292.820291,44.8953114 293.126822,44.9995933 293.384954,45.2035223 C293.64539,45.412086 293.774456,45.6971232 293.774456,46.0632684 L293.774456,61.4575909 C293.774456,61.8260536 293.64539,62.1110907 293.384954,62.3173371 C293.126822,62.5235835 292.820291,62.625548 292.46536,62.625548 C292.087382,62.625548 291.769327,62.5235835 291.511195,62.3173371 C291.250759,62.1110907 291.121693,61.8260536 291.121693,61.4575909 L291.121693,46.0632684 Z M286.804904,65.9648854 C287.512461,66.5465466 288.349083,67.0239258 289.317077,67.4016579 C290.282765,67.7793901 291.33373,67.9670975 292.46536,67.9670975 C293.59699,67.9670975 294.643345,67.7793901 295.59751,67.4016579 C296.551675,67.0239258 297.383688,66.5465466 298.09355,65.9648854 C298.798802,65.3832243 299.354246,64.7320419 299.755272,64.0136556 C300.156298,63.292952 300.35681,62.5931047 300.35681,61.9071617 L300.35681,45.6136977 C300.35681,44.930072 300.156298,44.2279074 299.755272,43.5095211 C299.354246,42.7911349 298.798802,42.1399525 298.09355,41.5582913 C297.383688,40.9766302 296.551675,40.4969335 295.59751,40.1192014 C294.643345,39.7437867 293.59699,39.5560793 292.46536,39.5560793 C291.33373,39.5560793 290.282765,39.7437867 289.317077,40.1192014 C288.349083,40.4969335 287.512461,40.9766302 286.804904,41.5582913 C286.097347,42.1399525 285.541903,42.7911349 285.140877,43.5095211 C284.739851,44.2279074 284.539338,44.930072 284.539338,45.6136977 L284.539338,61.9071617 C284.539338,62.5931047 284.739851,63.292952 285.140877,64.0136556 C285.541903,64.7320419 286.097347,65.3832243 286.804904,65.9648854 L286.804904,65.9648854 Z M263.609939,67.4526402 L260.208134,49.9958539 L260.208134,67.4526402 L254.540764,67.4526402 L254.540764,40.0682192 L263.471655,40.0682192 L266.184341,52.5635055 L268.827884,40.0682192 L277.894755,40.0682192 L277.894755,67.4526402 L271.575142,67.4526402 L271.575142,50.0306145 L267.592541,67.4526402 L263.609939,67.4526402 Z M364.848214,40.0682192 L373.915085,40.0682192 L373.915085,67.4526402 L367.595472,67.4526402 L367.595472,50.0282972 L363.610566,67.4526402 L359.627965,67.4526402 L356.226159,49.9958539 L356.226159,67.4526402 L350.561094,67.4526402 L350.561094,40.0682192 L359.48968,40.0682192 L362.204671,52.5635055 L364.848214,40.0682192 Z M390.25804,62.2848938 L388.679289,62.2848938 L388.679289,56.2249581 L390.25804,56.2249581 C390.601447,56.2249581 390.871102,56.3060662 391.067006,56.4659651 C391.260604,56.6258639 391.357404,56.8993142 391.357404,57.2886332 L391.357404,61.1887754 C391.357404,61.9187486 390.990949,62.2848938 390.25804,62.2848938 L390.25804,62.2848938 Z M388.679289,45.2707262 L390.25804,45.2707262 C390.990949,45.2707262 391.357404,45.6368714 391.357404,46.3668446 L391.357404,50.1001358 C391.357404,50.8069352 390.990949,51.1591762 390.25804,51.1591762 L388.679289,51.1591762 L388.679289,45.2707262 Z M393.367142,67.1629683 C394.111575,66.9683088 394.775342,66.6647327 395.358443,66.2545573 C395.941543,65.8443819 396.411712,65.3252899 396.768947,64.6972813 C397.121573,64.0692726 397.299039,63.3230778 397.299039,62.4563796 L397.299039,56.7046547 C397.299039,56.0442028 397.093917,55.4370505 396.681367,54.89015 C396.268817,54.3432495 395.651145,53.8867266 394.826046,53.5228987 C395.651145,53.1567535 396.268817,52.6955958 396.681367,52.1347911 C397.093917,51.5763037 397.299039,50.9761036 397.299039,50.3388254 L397.299039,45.0667972 C397.299039,44.2000989 397.121573,43.4515867 396.768947,42.8235781 C396.411712,42.1955695 395.941543,41.6764775 395.358443,41.2663021 C394.775342,40.8561267 394.111575,40.5525506 393.367142,40.3602084 C392.622709,40.1655489 391.873667,40.0682192 391.11771,40.0682192 L382.359675,40.0682192 L382.359675,67.4526402 L391.11771,67.4526402 C391.873667,67.4526402 392.622709,67.3553104 393.367142,67.1629683 L393.367142,67.1629683 Z M418.747006,67.4526402 L406.063988,67.4526402 L406.063988,40.0682192 L418.747006,40.0682192 L418.747006,44.930072 L412.510363,44.930072 L412.510363,50.818522 L416.642773,50.818522 L416.642773,56.021029 L412.510363,56.021029 L412.510363,62.2501332 L418.747006,62.2501332 L418.747006,67.4526402 Z M336.204831,44.930072 L336.204831,50.8162047 L340.339545,50.8162047 L340.339545,56.021029 L336.204831,56.021029 L336.204831,62.2501332 L342.441473,62.2501332 L342.441473,67.4526402 L329.758456,67.4526402 L329.758456,40.0682192 L342.441473,40.0682192 L342.441473,44.930072 L336.204831,44.930072 Z M391.428851,19.9487689 C387.545354,21.6450875 383.412944,23.3182323 379.513314,24.9658859 C379.289753,25.0608983 379.031622,25.0817547 378.775795,25.0701678 C378.547625,25.0817547 378.312541,25.0539462 378.0982,25.0145508 C376.952741,24.8036697 375.823415,24.490824 374.680261,24.2892124 C371.956051,23.8071984 369.529154,22.9126916 366.74502,22.8617094 C366.629783,22.8617094 366.516851,22.8617094 366.401613,22.8640267 C366.035159,22.8732962 365.671009,22.8756136 365.304554,22.8756136 C363.30173,22.8918352 361.298906,22.785236 359.282253,22.7133974 C359.282253,22.7133974 358.662276,22.6832715 358.383402,22.562768 C355.550869,21.3554156 352.72525,20.1225721 349.892717,18.9152197 C349.805137,18.8758243 349.710642,18.8526505 349.600015,18.8480158 L349.588491,18.8480158 C349.475558,18.8526505 349.381064,18.8758243 349.293483,18.9152197 C346.46095,20.1225721 343.637637,21.3554156 340.802799,22.562768 C340.523925,22.6832715 339.906253,22.7133974 339.906253,22.7133974 C337.606116,22.7945055 335.322113,22.9242785 333.035805,22.8640267 C330.039635,22.7829186 327.186359,23.7747551 324.268551,24.2892124 C323.123092,24.490824 321.993766,24.8036697 320.850612,25.0145508 C320.470329,25.0863894 320.032427,25.1141979 319.682106,24.9658859 C319.414756,24.8546519 319.126662,24.7295137 318.822436,24.5997407 C315.208594,23.0702731 311.606276,21.5199492 308.008567,19.9487689 C307.840321,19.8746129 307.637503,19.659097 307.66516,19.3856468 C307.662855,19.381012 307.660551,19.3763773 307.660551,19.3763773 C307.660551,19.3230777 307.66516,19.2628259 307.676684,19.1979394 C308.354279,15.1077724 307.676684,19.1979394 309.813183,7.3909135 C310.2096,5.20331145 310.596797,3.43051953 310.799615,2.86276264 C310.811139,2.80714564 310.880281,2.68895951 310.882586,2.68895951 C310.947119,2.61016876 311.041613,2.55918651 311.147631,2.55918651 C311.332011,2.55918651 311.484124,2.70518114 311.504867,2.89288852 L311.504867,2.89520589 L311.504867,2.89752327 L311.514086,2.99717039 C311.567095,3.59737053 312.106406,9.64571943 312.129453,9.94234344 C312.154805,10.3594709 312.465946,12.565612 312.906153,12.9966438 C313.256474,13.3396153 313.846489,13.8332162 314.588617,14.4589074 C314.858273,14.6836928 315.146366,14.9270172 315.443678,15.1796111 C315.747905,15.4368397 316.089007,15.5666127 316.460071,15.5666127 C316.879535,15.5666127 317.248294,15.3997617 317.476464,15.2676713 C318.317696,14.6350279 319.493117,13.7729644 320.822955,12.8089364 L320.811432,12.8089364 C320.848308,12.7857626 320.885184,12.7579541 320.922059,12.7347804 C321.763292,12.1276281 322.662143,11.4787631 323.581736,10.8183112 C327.695708,7.65509426 331.798156,4.16049267 336.375382,2.75384601 C338.115465,2.21853238 339.823282,2.21853238 341.420471,2.55223438 C341.899858,2.64492939 342.254789,2.74689389 342.443778,2.80482826 C343.3772,3.05973952 344.156204,3.40271103 344.82919,3.78507791 C346.855062,4.83021406 348.058139,6.57519748 349.59771,7.41640463 L349.837403,7.41640463 C351.379279,6.57519748 352.582356,4.83021406 354.608228,3.78507791 C355.281214,3.40271103 356.062523,3.05973952 356.991335,2.80482826 C357.180324,2.74689389 357.535255,2.64492939 358.016947,2.55223438 C359.616441,2.21853238 361.321953,2.21853238 363.062036,2.75384601 C367.639262,4.16049267 371.74171,7.65509426 375.855682,10.8183112 C376.775275,11.4787631 377.674126,12.1276281 378.515359,12.7347804 C378.552235,12.7579541 378.586806,12.7857626 378.625986,12.8089364 L378.614463,12.8089364 C379.944301,13.7729644 381.119722,14.6350279 381.958649,15.2676713 C382.186819,15.3997617 382.557883,15.5666127 382.977347,15.5666127 C383.346106,15.5666127 383.689513,15.4368397 383.991435,15.1796111 C384.291052,14.9270172 384.579145,14.6836928 384.846496,14.4589074 C385.593234,13.8332162 386.180944,13.3396153 386.531265,12.9966438 C386.971472,12.565612 387.280308,10.3594709 387.31027,9.94234344 C387.331012,9.64571943 387.872628,3.59737053 387.925637,2.99717039 L387.932551,2.89752327 L387.932551,2.89520589 L387.932551,2.89288852 C387.950989,2.70518114 388.103102,2.55918651 388.287482,2.55918651 C388.3935,2.55918651 388.487995,2.61016876 388.554832,2.68895951 C388.557137,2.68895951 388.62628,2.80714564 388.637803,2.86276264 C388.838316,3.43051953 389.227818,5.20331145 389.626539,7.3909135 C391.760734,19.1979394 391.083139,15.1077724 391.760734,19.1979394 C391.772258,19.2628259 391.776867,19.3230777 391.776867,19.3763773 C391.776867,19.3763773 391.774563,19.381012 391.772258,19.3856468 C391.799915,19.659097 391.597097,19.8746129 391.428851,19.9487689 L391.428851,19.9487689 Z M452.172738,47.7201916 C451.449047,48.4571169 450.538673,48.8255795 449.441614,48.8255795 C448.339945,48.8255795 447.427266,48.4571169 446.696661,47.7201916 C445.966057,46.9855837 445.599602,46.0655858 445.599602,44.9601979 C445.599602,43.8663969 445.966057,42.9510337 446.696661,42.2141085 C447.427266,41.4795006 448.339945,41.1110379 449.441614,41.1110379 C450.538673,41.1110379 451.449047,41.4771832 452.172738,42.2094737 C452.894123,42.9394469 453.253664,43.8571274 453.253664,44.9601979 C453.253664,46.0655858 452.894123,46.9855837 452.172738,47.7201916 L452.172738,47.7201916 Z M449.441614,40.4204602 C448.148651,40.4204602 447.06542,40.8561267 446.191922,41.7274597 C445.320728,42.594158 444.882826,43.6740548 444.882826,44.9601979 C444.882826,46.2486584 445.320728,47.3285552 446.191922,48.1975709 C447.06542,49.0665865 448.148651,49.4999356 449.441614,49.4999356 C450.732271,49.4999356 451.813197,49.0665865 452.689001,48.1975709 C453.560195,47.3285552 453.998097,46.2486584 453.998097,44.9601979 C453.998097,43.6740548 453.560195,42.594158 452.689001,41.7274597 C451.813197,40.8561267 450.732271,40.4204602 449.441614,40.4204602 L449.441614,40.4204602 Z M450.623948,44.5152619 C450.506406,44.689065 450.351988,44.7748079 450.15839,44.7748079 L448.344554,44.7748079 L448.344554,43.0784894 L450.15839,43.0784894 C450.361207,43.0784894 450.515625,43.1642322 450.630863,43.3310832 C450.743795,43.4979342 450.799109,43.6833243 450.799109,43.8826185 C450.799109,44.1352124 450.74149,44.3437761 450.623948,44.5152619 L450.623948,44.5152619 Z M451.591942,43.8571274 C451.591942,43.4724431 451.46979,43.1225195 451.223182,42.8050391 C450.97427,42.4852413 450.61012,42.3276598 450.133037,42.3276598 L447.52637,42.3276598 L447.52637,47.6344487 L448.344554,47.6344487 L448.344554,45.4746552 L449.453137,45.4746552 L450.649301,47.6344487 L451.555066,47.6344487 L450.271322,45.4630683 C450.672348,45.4051339 450.995012,45.2197439 451.234706,44.9045809 C451.472095,44.5917353 451.591942,44.2418116 451.591942,43.8571274 L451.591942,43.8571274 Z M435.654623,50.6122757 C435.654623,51.3422488 435.301997,51.7060767 434.58983,51.7060767 L432.941937,51.7060767 L432.941937,45.2730435 L434.58983,45.2730435 C435.301997,45.2730435 435.654623,45.6368714 435.654623,46.3668446 L435.654623,50.6122757 Z M442.266939,66.4770253 C442.209321,66.2615094 442.117131,65.9417117 441.992674,65.5199494 C441.865913,65.0981871 441.693057,64.4493221 441.478716,63.5687196 C441.259765,62.6904345 440.962453,61.5386991 440.584475,60.1088786 C440.206496,58.6860104 439.743242,56.8668709 439.192408,54.6514604 C439.99446,54.2876325 440.600608,53.7569536 441.013157,53.0594237 C441.425707,52.3642112 441.630829,51.6875377 441.630829,51.0247684 L441.630829,45.0667972 C441.630829,44.1977815 441.453364,43.4515867 441.100738,42.8235781 C440.743502,42.1978868 440.275639,41.6787948 439.690233,41.2686194 C439.107132,40.8561267 438.443365,40.5525506 437.698932,40.3602084 C436.9545,40.1655489 436.205457,40.0682192 435.4495,40.0682192 L426.622323,40.0682192 L426.622323,67.4526402 L432.941937,67.4526402 L432.941937,56.5702469 L434.488421,56.5702469 L436.583435,67.4526402 L442.559642,67.4526402 C442.4905,67.2255374 442.43749,67.0586864 442.402919,66.9567219 C442.370653,66.8547574 442.324558,66.6971759 442.266939,66.4770253 L442.266939,66.4770253 Z M298.616727,205.093132 C298.621337,208.323552 298.135035,209.231963 297.837723,209.567983 C297.524278,209.901685 296.63695,210.360525 294.060244,210.207578 C288.178532,209.848385 282.294516,209.489192 276.410499,209.125364 C276.410499,176.378537 276.410499,143.627076 276.410499,110.882566 C282.29682,110.521056 288.178532,110.161862 294.060244,109.800352 C296.634646,109.628866 297.531192,110.15491 297.837723,110.444582 C298.128121,110.734254 298.609813,111.749264 298.616727,114.917116 C298.619032,144.978105 298.619032,175.036777 298.616727,205.093132 L298.616727,205.093132 Z M297.678695,95.6991248 C286.104261,96.5959489 274.529826,97.511312 262.960001,98.4220404 L262.960001,221.588207 C274.529826,222.50357 286.104261,223.39576 297.678695,224.311123 C307.227258,225.101348 312.085663,219.602217 312.06957,208.103402 C312.067225,176.035566 312.067225,143.963095 312.06957,111.897576 C312.060311,100.359366 307.231868,94.9459779 297.678695,95.6991248 L297.678695,95.6991248 Z M214.620257,176.387807 C217.266106,156.785131 219.90504,136.943766 222.546279,116.903107 C225.558582,136.614699 228.56858,156.564981 231.56936,176.765539 C225.920427,176.638083 220.271495,176.51758 214.620257,176.387807 L214.620257,176.387807 Z M232.634152,100.801985 C225.929646,101.323394 219.227445,101.849438 212.527548,102.373165 C206.874006,141.240179 201.225073,179.224274 195.573836,216.311544 C200.065786,216.673055 204.562345,217.009074 209.051991,217.368267 C210.37261,207.908742 211.695534,198.375061 213.016154,188.795033 C219.805936,189.061531 226.593413,189.344251 233.378585,189.589893 C234.874366,199.538384 236.360927,209.551761 237.856707,219.620756 C242.353266,219.975314 246.845217,220.327555 251.337167,220.672844 C245.1374,179.982056 238.942242,140.25993 232.747085,101.499515 C232.710209,101.267777 232.671028,101.031405 232.634152,100.801985 L232.634152,100.801985 Z M152.256134,201.503518 C162.078961,202.103718 171.89257,202.708553 181.710788,203.306435 C181.710788,207.283051 181.710788,211.24808 181.710788,215.224695 C167.402925,214.105403 153.106585,212.983794 138.801026,211.866819 L138.801026,108.143429 C152.703255,107.058897 166.600873,105.967414 180.503101,104.878247 C180.505406,108.843276 180.505406,112.808305 180.503101,116.773334 C171.085909,117.352677 161.671021,117.925069 152.256134,118.509047 C152.256134,129.752951 152.256134,140.962094 152.256134,152.194411 C159.951681,152.106351 167.642618,152.015973 175.335861,151.93023 L175.335861,163.744209 C167.642618,163.681639 159.951681,163.667735 152.256134,163.616753 C152.256134,176.251082 152.256134,188.885411 152.256134,201.503518 L152.256134,201.503518 Z M104.522538,110.833901 C109.007574,110.486295 113.490305,110.127102 117.977646,109.772543 L117.977646,210.237704 C113.494915,209.878511 109.012184,209.53554 104.522538,209.178664 L104.522538,208.46723 C104.487967,193.446005 104.458005,178.431732 104.421129,163.408189 C97.2487597,163.361842 90.0786947,163.331716 82.9086298,163.285368 C82.9408962,178.019239 82.9777722,192.74384 83.0077339,207.493932 C78.5250028,207.137056 74.0376622,206.787133 69.5549311,206.439527 C69.5549311,175.495617 69.5549311,144.526217 69.5549311,113.570721 C74.039967,113.223115 78.5273075,112.873191 83.0077339,112.518633 C82.9754674,126.026612 82.9455057,139.539226 82.9086298,153.044888 C90.0809995,152.952193 97.2533692,152.861815 104.421129,152.794611 C104.458005,138.806936 104.490272,124.821577 104.522538,110.833901 L104.522538,110.833901 Z M19.0464214,172.049681 C21.6853556,157.647195 24.3358136,143.029193 26.9770526,128.20031 C29.9847462,142.693174 32.9924398,157.4479 35.9955239,172.425095 C30.3465913,172.304592 24.695354,172.174819 19.0464214,172.049681 L19.0464214,172.049681 Z M37.0626213,116.110564 C30.358115,116.638926 23.6559135,117.158018 16.953712,117.688697 C11.3001699,146.33377 5.65123732,174.09824 0,200.996013 C4.49195006,201.345936 8.98620486,201.698177 13.4781549,202.048101 C14.8010792,195.135371 16.1193939,188.173976 17.4423181,181.150013 C24.2251858,181.411876 31.0241866,181.687644 37.8070543,181.949507 C39.3005297,189.346568 40.7893957,196.796929 42.2828711,204.305224 C46.7748212,204.650513 51.269076,205.025928 55.7633308,205.364265 C49.5658686,174.823579 43.3707112,145.244603 37.1755538,116.631974 C37.1386779,116.460488 37.0971925,116.286685 37.0626213,116.110564 L37.0626213,116.110564 Z M678.208402,192.764696 L678.208402,200.428256 C677.945661,200.643772 677.68753,200.86624 677.424788,201.081755 C661.953028,202.360946 646.476658,203.640137 631.004898,204.926281 C630.744462,204.731621 630.481721,204.541596 630.225894,204.351572 L630.225894,115.691119 C630.481721,115.49646 630.744462,115.306435 631.004898,115.111776 C646.068718,116.358523 661.130234,117.607589 676.189445,118.861288 C676.449881,119.088391 676.714927,119.30159 676.975363,119.526375 L676.975363,127.210791 C676.714927,127.389229 676.449881,127.563032 676.189445,127.74147 C665.451633,127.046257 654.716126,126.344092 643.978314,125.646563 L643.978314,153.557028 C652.946081,153.663627 661.918457,153.777178 670.888529,153.888412 C671.148965,154.085389 671.414011,154.291636 671.674447,154.497882 L671.674447,162.263406 C671.414011,162.4627 671.148965,162.659677 670.888529,162.865923 C661.918457,162.916906 652.946081,162.963253 643.978314,163.016553 L643.978314,194.396128 C655.12637,193.677742 666.276732,192.954721 677.424788,192.227065 C677.68753,192.400868 677.945661,192.583941 678.208402,192.764696 L678.208402,192.764696 Z M607.524145,113.155911 C607.786886,113.406188 608.045018,113.649512 608.310064,113.897471 L608.310064,206.13595 C608.047323,206.386227 607.789191,206.629551 607.524145,206.87751 C603.493145,207.208895 599.457534,207.547232 595.424229,207.880934 C595.163792,207.674687 594.905661,207.461489 594.64292,207.252925 L594.64292,140.301642 C589.206024,155.661204 583.769128,171.461067 578.329927,187.710501 C578.083319,187.884304 577.832102,188.074329 577.583189,188.245815 C572.593414,188.484505 567.59903,188.720877 562.609254,188.959567 C562.360342,188.79735 562.109124,188.637451 561.860212,188.477552 C556.423316,172.295322 550.98642,155.679743 545.547219,138.621546 C545.544915,162.835798 545.544915,187.047732 545.547219,211.264301 C545.286783,211.526165 545.024042,211.808885 544.76591,212.075383 C540.7303,212.411402 536.696994,212.747421 532.663689,213.078806 C532.400948,212.842434 532.138207,212.619966 531.87777,212.383594 C531.880075,177.467704 531.880075,142.549496 531.87777,107.633606 C532.138207,107.397234 532.400948,107.170131 532.663689,106.933759 C537.791749,107.360156 542.917504,107.786553 548.047869,108.210633 C548.296781,108.402975 548.545694,108.602269 548.794606,108.792294 C555.860958,130.499146 562.927309,151.485294 569.993661,171.746105 C577.129154,151.207209 584.262343,131.389018 591.400142,112.296165 C591.649055,112.152488 591.895662,112.015763 592.144575,111.87672 C597.272635,112.305434 602.39839,112.731831 607.524145,113.155911 L607.524145,113.155911 Z M476.296515,176.37622 C479.016115,156.611328 481.731106,137.057317 484.448401,117.755901 C487.536761,137.416511 490.62973,156.824527 493.720395,175.968362 C487.91013,176.100452 482.104475,176.239495 476.296515,176.37622 L476.296515,176.37622 Z M494.114506,103.726512 C487.698093,103.191198 481.279376,102.658202 474.860658,102.125206 C474.602526,102.338404 474.344395,102.551603 474.086263,102.764801 C468.372798,140.364212 462.661637,178.895207 456.948172,218.362421 C457.208608,218.670632 457.466739,218.985795 457.724871,219.294006 C461.788138,218.953352 465.849101,218.617332 469.912368,218.28363 C470.168195,218.01945 470.430936,217.759904 470.686763,217.500358 C472.009687,207.915694 473.332611,198.384331 474.650926,188.906267 C481.625088,188.62123 488.599249,188.324606 495.573411,188.041886 C497.069191,197.128314 498.562666,206.156807 500.056142,215.118096 C500.314273,215.31739 500.572405,215.514367 500.830536,215.715979 C504.891499,215.377642 508.957071,215.048575 513.020338,214.710238 C513.276165,214.378853 513.534297,214.049786 513.790123,213.723036 C507.488948,178.332084 501.187772,141.91917 494.886596,104.46112 C494.628465,104.213161 494.370333,103.969836 494.114506,103.726512 L494.114506,103.726512 Z M436.440548,115.102506 C436.440548,121.229646 436.440548,127.354468 436.440548,133.481608 C436.180105,133.766645 435.919669,134.056317 435.656927,134.343671 C431.595965,134.197677 427.530393,134.053999 423.46943,133.912639 C423.208994,133.599794 422.946253,133.2939 422.685817,132.985689 C422.688121,127.463385 422.688121,121.943397 422.685817,116.425727 C422.690426,113.334349 422.190296,112.372638 421.88607,112.022715 C421.57032,111.686695 420.648421,111.077226 417.991049,110.901105 C413.411519,110.611433 408.834293,110.307857 404.254762,110.008916 C401.355392,109.818891 400.518769,110.361157 400.297514,110.611433 C400.027858,110.908057 399.55769,111.88599 399.5623,115.077015 C399.564604,145.087022 399.564604,175.094712 399.5623,205.104719 C399.566909,208.135845 400.041687,209.180981 400.318256,209.505414 C400.599435,209.818259 401.46602,210.374429 404.254762,210.168183 C408.834293,209.871559 413.411519,209.574935 417.991049,209.278311 C420.627678,209.104508 421.549577,208.448691 421.860718,208.091815 C422.171858,207.727987 422.695036,206.668947 422.685817,203.751371 C422.688121,190.570142 422.688121,177.386595 422.685817,164.205366 C420.003092,164.221588 417.320368,164.235492 414.635339,164.254031 C414.374902,163.952772 414.114466,163.649196 413.851725,163.35489 C413.851725,159.436208 413.851725,155.508258 413.851725,151.584942 C414.116771,151.288318 414.374902,150.989376 414.635339,150.688117 C421.644071,150.780812 428.652804,150.864238 435.656927,150.952298 C435.917364,151.237335 436.180105,151.543229 436.440548,151.835218 C436.440548,169.586311 436.440548,187.330452 436.440548,205.079227 C436.447455,215.773913 431.478423,221.63919 421.699385,222.480397 C414.646862,223.064375 407.59434,223.650671 400.544121,224.23465 C390.765084,225.045731 385.800661,219.67869 385.80527,208.182193 C385.802966,176.128261 385.802966,144.069694 385.80527,112.004176 C385.80527,100.505361 390.767389,95.1128289 400.544121,95.9470839 C407.59434,96.5310624 414.644558,97.1173583 421.699385,97.7059716 C431.480728,98.5680351 436.435932,104.393916 436.440548,115.102506 L436.440548,115.102506 Z M361.483285,93.4420015 C362.7532,93.5462833 364.027725,93.6459305 365.29764,93.747895 L365.29764,111.197729 C359.867658,110.866344 354.437677,110.546547 349.00539,110.215162 L349.00539,110.238336 C343.563885,110.544229 338.126989,110.854758 332.685483,111.165286 L332.685483,94.1441661 C333.962313,94.044519 335.232228,93.9379197 336.502143,93.8475421 C336.502143,97.5831507 336.502143,101.321077 336.502143,105.056685 C340.033014,104.855074 343.563885,104.648827 347.09706,104.447216 C347.094756,101.304855 347.094756,98.1555423 347.09706,95.0131817 C347.73317,94.9598821 348.371585,94.9135346 349.00539,94.8648697 L349.00539,94.8463307 C349.634586,94.8949956 350.261477,94.9482952 350.888368,94.9992775 L350.888368,104.435629 C354.421543,104.655779 357.95011,104.862026 361.483285,105.084494 C361.48098,101.200573 361.48098,97.3212873 361.483285,93.4420015 L361.483285,93.4420015 Z M349.00539,119.635292 C354.437677,119.899472 359.867658,120.17524 365.29764,120.437103 L365.29764,126.191146 C360.524511,125.994169 355.744468,125.794875 350.971338,125.593263 C350.971338,128.478395 350.971338,131.377431 350.971338,134.262563 C355.744468,134.410875 360.524511,134.563822 365.29764,134.712134 L365.29764,140.507889 C359.867658,140.375798 354.437677,140.246025 349.00539,140.111618 L349.00539,140.134791 C343.563885,140.255295 338.126989,140.378116 332.685483,140.503254 L332.685483,134.705182 C337.518536,134.563822 342.349284,134.410875 347.180031,134.269515 L347.180031,125.600215 C342.344674,125.799509 337.513926,125.982582 332.685483,126.179559 L332.685483,120.409295 C338.126989,120.163653 343.563885,119.911059 349.00539,119.660783 L349.00539,119.635292 Z M349.00539,153.322973 C354.437677,153.36932 359.867658,153.415668 365.29764,153.457381 L365.29764,159.218375 C359.867658,159.21374 354.437677,159.206788 349.00539,159.202153 L349.00539,159.218375 C344.838409,159.236914 340.671428,159.236914 336.502143,159.229962 C336.502143,161.494037 336.502143,163.751161 336.502143,166.012919 C335.229923,166.017553 333.957703,165.98511 332.685483,165.989745 L332.685483,146.716137 C333.962313,146.686011 335.232228,146.686011 336.502143,146.658202 C336.502143,148.908373 336.502143,151.18867 336.502143,153.441159 C340.671428,153.387859 344.838409,153.380907 349.00539,153.346147 L349.00539,153.322973 Z M350.91372,193.439052 C355.707592,193.244393 360.503768,193.054368 365.29764,192.859709 L365.29764,198.68559 C359.867658,198.945136 354.437677,199.202364 349.00539,199.459593 L349.00539,199.478132 C343.563885,199.237125 338.126989,199.000753 332.685483,198.738889 L332.685483,181.20563 C333.962313,181.235755 335.232228,181.275151 336.502143,181.302959 C336.502143,185.210054 336.502143,189.144957 336.502143,193.054368 C340.079109,193.198045 343.660684,193.327818 347.235345,193.471496 C347.23765,190.326818 347.23765,187.184457 347.235345,184.035145 C347.82997,184.039779 348.41768,184.053684 349.00539,184.081492 L349.00539,184.053684 C349.6415,184.035145 350.279915,184.02124 350.91372,184.000384 C350.916025,187.147379 350.916025,190.28974 350.91372,193.439052 L350.91372,193.439052 Z M361.483285,219.335719 C361.476371,220.123626 361.404924,220.65894 361.202106,220.895312 C361.015422,221.196571 360.591349,221.256823 359.987505,221.333296 C356.325264,221.606746 352.665327,221.882514 349.00539,222.160599 L349.00539,222.183773 C345.338539,221.928861 341.664774,221.669315 337.995618,221.405135 C337.377946,221.363422 336.97692,221.249871 336.778712,220.969468 C336.582809,220.719192 336.490619,220.153752 336.502143,219.402923 C336.502143,218.16081 336.502143,216.911744 336.502143,215.667314 C336.497533,214.923437 336.580504,214.420566 336.778712,214.142481 C336.974616,213.936235 337.375642,213.813414 337.995618,213.855127 C341.662469,214.084547 345.338539,214.313967 349.00539,214.543387 L349.00539,214.515579 C352.665327,214.272254 356.325264,214.026612 359.987505,213.787923 C360.593653,213.74621 361.013117,213.859761 361.202106,214.079912 C361.400314,214.339458 361.478676,214.851598 361.483285,215.602428 C361.48098,216.844541 361.48098,218.088971 361.483285,219.335719 L361.483285,219.335719 Z M360.706586,207.91106 C356.804651,208.145115 352.90502,208.372217 349.00539,208.601637 L349.00539,208.629446 C345.096541,208.406978 341.185387,208.193779 337.276537,207.978264 C334.227358,207.809095 332.68546,209.707025 332.68546,213.683641 L332.68546,220.811887 C332.678569,224.818628 334.229663,226.952931 337.276537,227.217111 C341.187691,227.51837 345.098846,227.824264 349.00539,228.130157 L349.00539,228.109301 C352.90502,227.784868 356.806955,227.46507 360.706586,227.145273 C363.776508,226.888044 365.29303,224.776915 365.29764,220.733096 L365.29764,213.611802 C365.29764,209.651408 363.774203,207.727987 360.706586,207.91106 L360.706586,207.91106 Z" id="Fill-1" fill="#FFFFFF" mask="url(#mask-3)"></path>
                        </g>
                    </g>
                </g>
                <line x1="740.3704" y1="374.7128" x2="168.5992" y2="374.7128" id="Line" stroke="#FFFFFF" stroke-width="3.4496" stroke-linecap="square"></line>
                <path d="M187.762247,470.2816 L187.762247,419.634055 L197.378869,419.634055 L197.378869,412.948213 L169.902805,412.948213 L169.902805,419.634055 L179.519428,419.634055 L179.519428,470.2816 L187.762247,470.2816 Z M224.036861,470.2816 L224.036861,445.095208 L236.217916,445.095208 L236.217916,470.2816 L244.460735,470.2816 L244.460735,412.948213 L236.217916,412.948213 L236.217916,438.409366 L224.036861,438.409366 L224.036861,412.948213 L215.794041,412.948213 L215.794041,470.2816 L224.036861,470.2816 Z M292.092121,470.2816 L292.092121,463.595758 L275.514896,463.595758 L275.514896,443.996165 L288.703407,443.996165 L288.703407,437.310323 L275.514896,437.310323 L275.514896,419.634055 L291.451013,419.634055 L291.451013,412.948213 L267.18049,412.948213 L267.18049,470.2816 L292.092121,470.2816 Z M356.032182,470.373187 C361.985329,470.373187 364.641348,467.533994 364.641348,462.221955 L364.641348,452.513745 L356.215355,452.513745 L356.215355,461.214499 C356.215355,463.412584 355.757421,463.870518 353.559336,463.870518 L348.888405,463.870518 C346.69032,463.870518 346.140799,463.412584 346.140799,461.214499 L346.140799,422.106901 C346.140799,419.908816 346.69032,419.450882 348.888405,419.450882 L353.559336,419.450882 C355.757421,419.450882 356.215355,419.908816 356.215355,422.106901 L356.215355,430.899242 L364.641348,430.899242 L364.641348,421.007859 C364.641348,415.787406 361.985329,412.948213 356.032182,412.948213 L346.323972,412.948213 C340.462412,412.948213 337.806393,415.787406 337.806393,421.007859 L337.806393,462.221955 C337.806393,467.533994 340.462412,470.373187 346.323972,470.373187 L356.032182,470.373187 Z M394.23012,470.2816 L394.23012,445.095208 L406.411175,445.095208 L406.411175,470.2816 L414.653994,470.2816 L414.653994,412.948213 L406.411175,412.948213 L406.411175,438.409366 L394.23012,438.409366 L394.23012,412.948213 L385.987301,412.948213 L385.987301,470.2816 L394.23012,470.2816 Z M441.953093,470.2816 L444.059591,457.001502 L456.14906,457.001502 L458.438732,470.2816 L466.773138,470.2816 L455.874299,412.948213 L443.876418,412.948213 L433.710274,470.2816 L441.953093,470.2816 Z M455.050017,450.31566 L445.067047,450.31566 L449.829565,420.09199 L455.050017,450.31566 Z M508.268203,470.2816 L508.268203,463.595758 L494.072237,463.595758 L494.072237,412.948213 L485.829418,412.948213 L485.829418,470.2816 L508.268203,470.2816 Z M549.030574,470.2816 L549.030574,463.595758 L534.834608,463.595758 L534.834608,412.948213 L526.591788,412.948213 L526.591788,470.2816 L549.030574,470.2816 Z M592.26579,470.2816 L592.26579,463.595758 L575.688565,463.595758 L575.688565,443.996165 L588.877076,443.996165 L588.877076,437.310323 L575.688565,437.310323 L575.688565,419.634055 L591.624682,419.634055 L591.624682,412.948213 L567.354159,412.948213 L567.354159,470.2816 L592.26579,470.2816 Z M619.56489,470.2816 L619.56489,428.88433 L631.654358,470.2816 L639.988764,470.2816 L639.988764,412.948213 L632.387053,412.948213 L632.387053,453.154853 L620.663932,412.948213 L611.963179,412.948213 L611.963179,470.2816 L619.56489,470.2816 Z M680.567961,470.373187 C686.429521,470.373187 689.085541,467.533994 689.085541,462.221955 L689.085541,440.790625 L676.171791,440.790625 L676.171791,447.201706 L680.751135,447.201706 L680.751135,461.214499 C680.751135,463.412584 680.201613,463.870518 678.003528,463.870518 L673.332597,463.870518 C671.134512,463.870518 670.584991,463.412584 670.584991,461.214499 L670.584991,422.106901 C670.584991,419.908816 671.134512,419.450882 673.332597,419.450882 L678.003528,419.450882 C680.201613,419.450882 680.751135,419.908816 680.751135,422.106901 L680.751135,429.708612 L689.085541,429.708612 L689.085541,421.007859 C689.085541,415.787406 686.429521,412.948213 680.567961,412.948213 L670.768165,412.948213 C664.906604,412.948213 662.250585,415.787406 662.250585,421.007859 L662.250585,462.221955 C662.250585,467.533994 664.906604,470.373187 670.768165,470.373187 L680.567961,470.373187 Z M735.801058,470.2816 L735.801058,463.595758 L719.223833,463.595758 L719.223833,443.996165 L732.412344,443.996165 L732.412344,437.310323 L719.223833,437.310323 L719.223833,419.634055 L735.15995,419.634055 L735.15995,412.948213 L710.889427,412.948213 L710.889427,470.2816 L735.801058,470.2816 Z" id="THECHALLENGE" fill="#FFFFFF" fill-rule="nonzero"></path>
            </g>
        </g>
    </g>
</svg>