<svg xmlns="http://www.w3.org/2000/svg" viewBox="0 0 956.89 588.38"><defs><style>.cls-1{fill:#fff;}</style></defs><g id="Layer_2" data-name="Layer 2"><g id="Layer_1-2" data-name="Layer 1"><polygon class="cls-1" points="477.88 294.34 419.06 188.94 313.47 0 195.83 0 360.24 294.34 195.83 588.38 313.47 588.38 419.06 399.44 477.88 294.34"/><polygon class="cls-1" points="716.82 294.34 658 188.94 552.41 0 434.77 0 599.18 294.34 434.77 588.38 552.41 588.38 658 399.44 716.82 294.34"/><polygon class="cls-1" points="74.53 588.38 0 588.38 0 511.28 121.3 294.34 0 77.18 0 0 74.53 0 180.12 188.94 238.94 294.34 180.12 399.44 74.53 588.38"/><polygon class="cls-1" points="956.89 0 913.78 0 956.89 77.18 956.89 0"/><polygon class="cls-1" points="956.89 588.38 956.89 511.28 913.78 588.38 956.89 588.38"/><polygon class="cls-1" points="898.07 399.44 956.89 294.34 898.07 188.94 792.48 0 674.84 0 839.25 294.34 674.84 588.38 792.48 588.38 898.07 399.44"/></g></g></svg>