<svg id="Capa_1" enable-background="new 0 0 512.004 512.004" height="512" viewBox="0 0 512.004 512.004" width="512" xmlns="http://www.w3.org/2000/svg"><g id="XMLID_1693_"><path id="XMLID_1706_" d="m70.874 315.857c-17.468-35.14-27.249-76.959-26.617-114.15 1.836-108.054 90.228-193.424 198.283-191.679 106.268 1.715 191.885 88.395 191.885 195.072l32.896 107.106c1.963 6.391-2.816 12.858-9.501 12.858h-44.938v55.217c0 31.878-25.842 57.72-57.72 57.72h-66.054l-18.333 64h-202l16.063-66.615c9.702-40.236 4.46-82.466-13.964-119.529z" fill="#ffe6c0"/><circle id="XMLID_1703_" cx="239.341" cy="205.001" fill="#ffcb7c" r="120"/><g id="XMLID_676_"><path id="XMLID_677_" d="m476.88 309.27-32.46-105.688c-.387-53.632-21.292-104.147-58.962-142.396-37.984-38.565-88.683-60.284-142.757-61.157-38.451-.641-76.05 9.368-108.741 28.886-4.742 2.831-6.291 8.97-3.459 13.712s8.971 6.291 13.712 3.459c29.494-17.61 63.445-26.612 98.165-26.061 100.381 1.621 182.047 84.645 182.047 185.074 0 .995.148 1.985.441 2.936l32.871 107.028h-44.855c-5.523 0-10 4.477-10 10v55.217c0 26.313-21.407 47.72-47.72 47.72h-76.375c-23.776 0-46.128-9.259-62.94-26.071-3.905-3.904-10.237-3.904-14.143 0-3.905 3.905-3.905 10.237 0 14.142 19.897 19.897 46.131 31.153 74.149 31.888l-14.692 51.287c-1.521 5.31 1.55 10.846 6.859 12.367.92.264 1.847.389 2.759.389 4.349 0 8.351-2.86 9.608-7.249l16.258-56.754h58.516c37.341 0 67.72-30.379 67.72-67.72v-45.217h34.938c6.392 0 12.237-2.948 16.036-8.089 3.8-5.139 4.902-11.592 3.025-17.703z"/><path id="XMLID_678_" d="m54.255 201.876c.587-34.547 10.642-68.02 29.076-96.799 2.979-4.65 1.624-10.835-3.026-13.814-4.651-2.978-10.835-1.624-13.814 3.026-20.437 31.904-31.583 68.989-32.232 107.247-.66 38.791 9.422 82.081 27.661 118.771 17.534 35.274 22.221 75.311 13.197 112.735l-16.063 66.615c-1.295 5.369 2.008 10.771 7.377 12.065.788.19 1.576.281 2.353.281 4.513 0 8.608-3.077 9.713-7.658l16.063-66.615c10.124-41.987 4.893-86.85-14.73-126.326-16.86-33.914-26.182-73.836-25.575-109.528z"/><path id="XMLID_681_" d="m369.341 205.001c0-71.682-58.318-130-130-130s-130 58.318-130 130 58.318 130 130 130 130-58.318 130-130zm-240 0c0-60.654 49.346-110 110-110s110 49.346 110 110-49.346 110-110 110-110-49.346-110-110z"/><path id="XMLID_682_" d="m203.977 172.761c-1.86-1.86-4.44-2.93-7.07-2.93-2.64 0-5.21 1.07-7.07 2.93-1.87 1.86-2.93 4.44-2.93 7.07s1.06 5.21 2.93 7.07c1.86 1.86 4.43 2.93 7.07 2.93 2.63 0 5.2-1.07 7.07-2.93 1.86-1.86 2.93-4.44 2.93-7.07s-1.07-5.21-2.93-7.07z"/><path id="XMLID_683_" d="m278.387 189.832c2.64 0 5.21-1.07 7.08-2.93 1.86-1.86 2.93-4.44 2.93-7.07s-1.07-5.21-2.93-7.07-4.44-2.93-7.08-2.93c-2.63 0-5.2 1.07-7.07 2.93-1.86 1.86-2.93 4.44-2.93 7.07s1.07 5.21 2.93 7.07c1.87 1.859 4.44 2.93 7.07 2.93z"/><path id="XMLID_684_" d="m258.456 251.293c2.559 0 5.119-.976 7.071-2.929 3.905-3.905 3.905-10.237 0-14.143-15.374-15.374-40.388-15.373-55.761 0-3.905 3.905-3.905 10.237 0 14.143 3.905 3.905 10.237 3.905 14.143 0 3.669-3.67 8.548-5.691 13.738-5.691 5.189 0 10.068 2.021 13.738 5.691 1.953 1.953 4.512 2.929 7.071 2.929z"/><path id="XMLID_685_" d="m110.607 57.971c-3.809-4-10.139-4.154-14.138-.345-4 3.809-4.154 10.139-.345 14.138l.01.01c1.964 2.063 4.597 3.101 7.235 3.101 2.478 0 4.96-.917 6.897-2.761 4.001-3.809 4.15-10.144.341-14.143z"/></g></g></svg>