<svg id="Capa_1" enable-background="new 0 0 512.003 512.003" height="512" viewBox="0 0 512.003 512.003" width="512" xmlns="http://www.w3.org/2000/svg"><g id="XMLID_2811_"><path id="XMLID_1778_" d="m70.874 315.856c-17.468-35.14-27.249-76.959-26.617-114.15 1.835-108.054 90.227-193.424 198.282-191.679 106.268 1.715 191.886 88.396 191.886 195.073l32.896 107.106c1.963 6.391-2.816 12.858-9.501 12.858h-44.938v55.217c0 31.878-25.842 57.72-57.72 57.72h-66.054l-18.333 64h-202l16.063-66.615c9.702-40.237 4.459-82.467-13.964-119.53z" fill="#ffe6c0"/><g id="XMLID_2726_"><g id="XMLID_2732_"><path id="XMLID_2735_" d="m326.488 173.417c0-47.116-37.39-85.498-84.117-87.095-50.955-1.741-90.91 37.412-90.166 88.392.391 26.802 12.883 50.671 32.256 66.394 11.684 9.483 18.269 23.883 18.269 38.931h73.224v-.001c0-15.283 6.998-29.635 18.79-39.357 19.385-15.982 31.744-40.178 31.744-67.264z" fill="#ffcb7c"/><path id="XMLID_2733_" d="m202.729 280.039h73.224v46.227h-73.224z" fill="#91def5"/></g><circle id="XMLID_2729_" cx="239.342" cy="180.347" fill="#fff" r="20.281"/><g id="XMLID_1324_"><path id="XMLID_1325_" d="m476.88 309.269-32.46-105.688c-.387-53.632-21.292-104.147-58.962-142.396-37.984-38.565-88.683-60.284-142.757-61.157-38.451-.631-76.05 9.368-108.741 28.886-4.742 2.831-6.291 8.97-3.459 13.712s8.971 6.291 13.712 3.459c29.494-17.61 63.445-26.622 98.165-26.061 100.381 1.621 182.047 84.645 182.047 185.074 0 .995.148 1.985.441 2.936l32.871 107.028h-44.855c-5.523 0-10 4.477-10 10v55.217c0 26.313-21.407 47.72-47.72 47.72h-76.375c-23.776 0-46.128-9.259-62.94-26.071-3.905-3.904-10.237-3.904-14.143 0-3.905 3.905-3.905 10.237 0 14.142 19.897 19.897 46.131 31.153 74.149 31.888l-14.692 51.287c-1.521 5.31 1.55 10.846 6.859 12.367.92.264 1.847.389 2.759.389 4.349 0 8.351-2.86 9.608-7.249l16.258-56.754h58.516c37.341 0 67.72-30.379 67.72-67.72v-45.217h34.938c6.392 0 12.237-2.948 16.036-8.089 3.8-5.139 4.902-11.592 3.025-17.703z"/><path id="XMLID_1326_" d="m54.255 201.875c.587-34.547 10.642-68.02 29.076-96.799 2.979-4.65 1.624-10.835-3.026-13.814-4.651-2.979-10.835-1.624-13.814 3.026-20.437 31.904-31.583 68.989-32.232 107.247-.66 38.791 9.422 82.081 27.661 118.771 17.534 35.274 22.221 75.311 13.197 112.735l-16.063 66.615c-1.295 5.369 2.008 10.771 7.377 12.065.788.19 1.576.281 2.353.281 4.513 0 8.608-3.077 9.713-7.658l16.063-66.615c10.124-41.987 4.893-86.85-14.73-126.326-16.861-33.914-26.182-73.836-25.575-109.528z"/><path id="XMLID_1327_" d="m96.469 57.625c-4 3.809-4.154 10.139-.345 14.138l.01.01c1.964 2.063 4.597 3.101 7.235 3.101 2.478 0 4.96-.917 6.897-2.761 4-3.809 4.149-10.144.34-14.143-3.808-4-10.138-4.155-14.137-.345z"/><path id="XMLID_1545_" d="m275.954 336.266c5.523 0 10-4.477 10-10v-46.227-.001c0-12.169 5.522-23.702 15.152-31.641 22.486-18.54 35.382-45.869 35.382-74.98 0-25.361-9.714-49.359-27.352-67.574-17.596-18.17-41.186-28.652-66.424-29.515-27.412-.936-52.923 8.756-71.826 27.292-18.895 18.529-29.08 43.829-28.68 71.239.421 28.833 13.525 55.81 35.953 74.013 9.26 7.515 14.571 18.875 14.571 31.167v46.227c0 5.523 4.477 10 10 10zm-10-20h-53.224v-26.227h53.224zm-75.192-82.922c-17.815-14.459-28.225-35.882-28.559-58.775-.319-21.884 7.737-42.009 22.686-56.667 14.956-14.667 35.239-22.33 57.14-21.584 41.752 1.426 74.458 35.292 74.458 77.1 0 23.118-10.244 44.823-28.105 59.549-11.603 9.566-19.178 22.716-21.595 37.074h-17.446v-61.116c11.797-4.14 20.281-15.383 20.281-28.577 0-16.697-13.584-30.281-30.281-30.281s-30.281 13.584-30.281 30.281c0 13.194 8.484 24.437 20.281 28.577v61.115h-17.418c-2.354-14.438-9.778-27.459-21.161-36.696zm48.579-42.716c-5.669 0-10.281-4.612-10.281-10.281s4.612-10.281 10.281-10.281 10.281 4.612 10.281 10.281-4.612 10.281-10.281 10.281z"/></g></g></g></svg>