<svg id="Capa_1" enable-background="new 0 0 512.004 512.004" height="512" viewBox="0 0 512.004 512.004" width="512" xmlns="http://www.w3.org/2000/svg"><g id="XMLID_112_"><path id="XMLID_1117_" d="m70.874 315.857c-17.468-35.14-27.249-76.959-26.617-114.15 1.836-108.054 90.228-193.424 198.283-191.679 106.268 1.715 191.885 88.395 191.885 195.072l32.896 107.106c1.963 6.391-2.816 12.858-9.501 12.858h-44.938v55.217c0 31.878-25.842 57.72-57.72 57.72h-66.054l-18.333 64h-202l16.063-66.615c9.702-40.236 4.46-82.466-13.964-119.529z" fill="#ffe6c0"/><circle id="XMLID_770_" cx="239.341" cy="205.001" fill="#ffcb7c" r="120"/><g id="XMLID_126_"><path id="XMLID_138_" d="m476.88 309.27-32.46-105.688c-.387-53.632-21.292-104.147-58.962-142.396-37.984-38.565-88.683-60.284-142.757-61.157-38.448-.641-76.05 9.368-108.741 28.886-4.742 2.831-6.291 8.97-3.459 13.712 2.831 4.742 8.971 6.291 13.712 3.459 29.495-17.61 63.458-26.612 98.165-26.061 100.381 1.621 182.047 84.645 182.047 185.074 0 .995.148 1.985.441 2.936l32.871 107.028h-44.855c-5.523 0-10 4.477-10 10v55.217c0 26.313-21.407 47.72-47.72 47.72h-76.375c-23.776 0-46.128-9.259-62.94-26.071-3.905-3.904-10.237-3.904-14.143 0-3.905 3.905-3.905 10.237 0 14.142 19.897 19.897 46.131 31.153 74.149 31.888l-14.692 51.287c-1.521 5.31 1.55 10.846 6.859 12.367.92.264 1.847.389 2.759.389 4.349 0 8.351-2.86 9.608-7.249l16.258-56.754h58.516c37.341 0 67.72-30.379 67.72-67.72v-45.217h34.938c6.392 0 12.237-2.948 16.036-8.089 3.8-5.139 4.902-11.592 3.025-17.703z"/><path id="XMLID_139_" d="m54.255 201.876c.587-34.547 10.642-68.02 29.076-96.799 2.979-4.65 1.624-10.835-3.026-13.814-4.65-2.978-10.835-1.624-13.814 3.026-20.437 31.904-31.583 68.989-32.232 107.247-.66 38.791 9.422 82.081 27.661 118.771 17.534 35.274 22.221 75.311 13.197 112.735l-16.063 66.615c-1.295 5.369 2.008 10.771 7.377 12.065.788.19 1.576.281 2.353.281 4.513 0 8.608-3.077 9.713-7.658l16.063-66.615c10.124-41.987 4.893-86.85-14.73-126.326-16.86-33.914-26.182-73.836-25.575-109.528z"/><path id="XMLID_140_" d="m278.77 232.673c0-5.523-4.477-10-10-10s-10 4.477-10 10c0 10.713-8.716 19.429-19.429 19.429s-19.429-8.716-19.429-19.429c0-5.523-4.477-10-10-10s-10 4.477-10 10c0 21.741 17.688 39.429 39.429 39.429s39.429-17.688 39.429-39.429z"/><path id="XMLID_142_" d="m110.607 57.971c-3.81-4-10.139-4.154-14.138-.345-4 3.809-4.154 10.139-.345 14.138l.01.01c1.964 2.063 4.597 3.101 7.235 3.101 2.478 0 4.96-.917 6.897-2.761 4.001-3.809 4.15-10.144.341-14.143z"/><path id="XMLID_143_" d="m214.104 193.072c2.559 0 5.119-.976 7.071-2.929 3.905-3.905 3.905-10.237 0-14.143-12.722-12.721-33.421-12.721-46.143 0-3.905 3.905-3.905 10.237 0 14.143s10.237 3.905 14.143 0c4.923-4.924 12.935-4.924 17.857 0 1.954 1.953 4.513 2.929 7.072 2.929z"/><path id="XMLID_144_" d="m271.649 190.143c4.923-4.924 12.935-4.924 17.857 0 1.953 1.953 4.512 2.929 7.071 2.929s5.119-.976 7.071-2.929c3.905-3.905 3.905-10.237 0-14.143-12.722-12.721-33.421-12.721-46.143 0-3.905 3.905-3.905 10.237 0 14.143 3.907 3.906 10.239 3.906 14.144 0z"/><path id="XMLID_147_" d="m369.341 205.001c0-71.682-58.318-130-130-130s-130 58.318-130 130 58.318 130 130 130 130-58.318 130-130zm-240 0c0-60.654 49.346-110 110-110s110 49.346 110 110-49.346 110-110 110-110-49.346-110-110z"/></g></g></svg>