<svg id="Capa_1" enable-background="new 0 0 512.003 512.003" height="512" viewBox="0 0 512.003 512.003" width="512" xmlns="http://www.w3.org/2000/svg"><g id="XMLID_2319_"><path id="XMLID_1073_" d="m70.873 315.855c-17.468-35.14-27.249-76.959-26.617-114.15 1.836-108.054 90.228-193.423 198.282-191.679 106.268 1.716 191.886 88.396 191.886 195.073l32.896 107.106c1.963 6.391-2.816 12.858-9.501 12.858h-44.938v55.217c0 31.878-25.842 57.72-57.72 57.72h-66.054l-18.333 64h-202l16.063-66.615c9.702-40.236 4.46-82.467-13.964-119.53z" fill="#ffe6c0"/><g id="XMLID_1094_"><g id="XMLID_1096_"><g id="XMLID_1101_"><path id="XMLID_1102_" d="m265.41 263.336 56.785 56.88c8.91 8.923 23.572 8.864 32.581-.133 9.01-8.996 9.091-23.658.181-32.581l-56.785-56.88z" fill="#f5737f"/></g><ellipse id="XMLID_1098_" cx="218.663" cy="184.3" fill="#fff" rx="90.646" ry="90.687" transform="matrix(.7 -.715 .715 .7 -65.997 211.658)"/></g><g id="XMLID_1511_"><path id="XMLID_1512_" d="m476.88 309.269-32.461-105.689c-.387-53.632-21.291-104.147-58.962-142.395-37.983-38.565-88.682-60.284-142.757-61.157-38.464-.626-76.052 9.368-108.741 28.886-4.742 2.831-6.291 8.97-3.46 13.712 2.831 4.741 8.972 6.292 13.712 3.459 29.496-17.61 63.478-26.601 98.167-26.061 100.381 1.621 182.047 84.645 182.047 185.074 0 .995.148 1.985.44 2.936l32.871 107.028h-44.854c-5.522 0-10 4.477-10 10v55.217c0 26.313-21.407 47.72-47.721 47.72h-76.375c-23.775 0-46.129-9.259-62.94-26.071-3.906-3.904-10.236-3.904-14.143 0-3.905 3.905-3.905 10.237 0 14.142 19.897 19.897 46.13 31.153 74.149 31.888l-14.691 51.287c-1.521 5.31 1.55 10.846 6.859 12.367.921.264 1.847.389 2.759.389 4.349 0 8.352-2.86 9.608-7.249l16.258-56.752h58.516c37.341 0 67.721-30.379 67.721-67.72v-45.217h34.938c6.392 0 12.236-2.948 16.035-8.089 3.799-5.142 4.902-11.595 3.025-17.705z"/><path id="XMLID_1514_" d="m54.255 201.875c.586-34.546 10.641-68.019 29.076-96.799 2.979-4.65 1.623-10.835-3.027-13.814-4.651-2.979-10.836-1.623-13.814 3.026-20.437 31.906-31.582 68.991-32.231 107.247-.659 38.792 9.423 82.082 27.66 118.771 17.535 35.274 22.222 75.311 13.197 112.735l-16.063 66.615c-1.294 5.369 2.009 10.771 7.378 12.065.787.19 1.576.281 2.352.281 4.514 0 8.609-3.077 9.714-7.658l16.063-66.615c10.124-41.987 4.893-86.85-14.73-126.326-16.861-33.913-26.182-73.835-25.575-109.528z"/><path id="XMLID_1515_" d="m96.469 57.625c-3.999 3.809-4.153 10.139-.345 14.138l.01.01c1.964 2.063 4.597 3.101 7.235 3.101 2.478 0 4.961-.917 6.897-2.761 3.999-3.809 4.148-10.144.34-14.143-3.807-3.999-10.138-4.155-14.137-.345z"/><path id="XMLID_1518_" d="m262.72 274.795 52.399 52.486c6.177 6.186 14.422 9.588 23.23 9.588h.14c8.825-.036 17.119-3.484 23.353-9.71 12.935-12.916 13.021-33.875.193-46.722l-52.586-52.673c6.328-13.164 9.877-27.907 9.877-43.464 0-55.506-45.157-100.664-100.663-100.664s-100.663 45.158-100.663 100.664 45.157 100.663 100.663 100.663c15.791 0 30.742-3.659 44.057-10.168zm85.162 19.773c5.036 5.044 4.96 13.315-.172 18.439-2.479 2.477-5.783 3.848-9.302 3.862-3.5.016-6.728-1.306-9.136-3.718l-49.124-49.206c6.96-5.385 13.196-11.66 18.539-18.654zm-209.882-110.268c0-44.478 36.186-80.664 80.663-80.664s80.663 36.186 80.663 80.664-36.186 80.663-80.663 80.663-80.663-36.186-80.663-80.663z"/><path id="XMLID_1526_" d="m225.736 191.37c1.859-1.86 2.93-4.44 2.93-7.07s-1.07-5.21-2.93-7.07c-1.87-1.86-4.44-2.93-7.07-2.93-2.64 0-5.21 1.07-7.07 2.93-1.87 1.86-2.93 4.44-2.93 7.07s1.06 5.21 2.93 7.07c1.86 1.86 4.431 2.93 7.07 2.93 2.63 0 5.2-1.07 7.07-2.93z"/><path id="XMLID_1528_" d="m173.206 174.3c-2.63 0-5.21 1.07-7.07 2.93-1.859 1.86-2.93 4.44-2.93 7.07s1.07 5.21 2.93 7.07 4.44 2.93 7.07 2.93 5.21-1.07 7.07-2.93c1.859-1.86 2.93-4.44 2.93-7.07s-1.07-5.21-2.93-7.07-4.44-2.93-7.07-2.93z"/><path id="XMLID_1530_" d="m264.116 194.3c2.64 0 5.21-1.07 7.08-2.93 1.859-1.86 2.93-4.44 2.93-7.07s-1.07-5.21-2.93-7.07c-1.87-1.86-4.44-2.93-7.08-2.93-2.63 0-5.2 1.07-7.07 2.93-1.86 1.86-2.92 4.44-2.92 7.07s1.06 5.21 2.92 7.07 4.44 2.93 7.07 2.93z"/></g></g></g></svg>