<?xml version="1.0" encoding="iso-8859-1"?>
<!-- Generator: Adobe Illustrator 19.0.0, SVG Export Plug-In . SVG Version: 6.00 Build 0)  -->
<svg version="1.1" id="Capa_1" xmlns="http://www.w3.org/2000/svg" xmlns:xlink="http://www.w3.org/1999/xlink" x="0px" y="0px"
	 viewBox="0 0 512 512" style="enable-background:new 0 0 512 512;" xml:space="preserve">
<path style="fill:#6C4127;" d="M409.6,51.2h-59.733H162.133H102.4c-18.85,0-34.133,15.283-34.133,34.133v384
	c0,18.85,15.283,34.133,34.133,34.133h307.2c18.85,0,34.133-15.283,34.133-34.133v-384C443.733,66.483,428.45,51.2,409.6,51.2z"/>
<path style="fill:#F7E6A1;" d="M392.533,85.333h-42.667V102.4H256h-93.867V85.333h-42.667c-9.429,0-17.067,7.637-17.067,17.067
	v349.867c0,9.429,7.637,17.067,17.067,17.067h273.067c9.429,0,17.067-7.637,17.067-17.067V102.4
	C409.6,92.971,401.963,85.333,392.533,85.333z"/>
<path style="fill:#AFB6BB;" d="M306.441,34.133c-9.139,0-17.681-4.386-23.1-11.742C277.154,13.995,267.238,8.533,256,8.533
	c-11.238,0-21.154,5.461-27.341,13.858c-5.419,7.356-13.961,11.742-23.1,11.742h-21.837c-11.921,0-21.589,9.668-21.589,21.589V102.4
	h187.733V55.723c0-11.921-9.668-21.589-21.589-21.589H306.441z"/>
<path style="fill:#FFFFFF;" d="M264.576,76.8h-17.152c-4.685,0-8.491-3.806-8.491-8.491V51.157c0-4.685,3.806-8.491,8.491-8.491
	h17.152c4.685,0,8.491,3.806,8.491,8.491v17.152C273.067,72.994,269.261,76.8,264.576,76.8z"/>
<g>
	<path style="fill:#4D007E;" d="M213.333,230.4c-2.185,0-4.369-0.836-6.033-2.5l-68.267-68.267c-3.337-3.337-3.337-8.73,0-12.066
		c3.337-3.337,8.73-3.337,12.066,0l68.267,68.267c3.337,3.337,3.337,8.73,0,12.066C217.702,229.564,215.518,230.4,213.333,230.4z"/>
	<path style="fill:#4D007E;" d="M145.067,230.4c-2.185,0-4.369-0.836-6.033-2.5c-3.337-3.337-3.337-8.73,0-12.066l68.267-68.267
		c3.337-3.337,8.73-3.337,12.066,0c3.337,3.337,3.337,8.73,0,12.066L151.1,227.9C149.436,229.564,147.251,230.4,145.067,230.4z"/>
	<path style="fill:#4D007E;" d="M366.933,435.2c-2.185,0-4.369-0.836-6.033-2.5l-34.133-34.133c-3.337-3.337-3.337-8.73,0-12.066
		s8.73-3.337,12.066,0l34.133,34.133c3.337,3.337,3.337,8.73,0,12.066C371.302,434.364,369.118,435.2,366.933,435.2z"/>
	<path style="fill:#4D007E;" d="M332.8,435.2c-2.185,0-4.369-0.836-6.033-2.5c-3.337-3.337-3.337-8.73,0-12.066L360.9,386.5
		c3.337-3.337,8.73-3.337,12.066,0s3.337,8.73,0,12.066L338.833,432.7C337.169,434.364,334.985,435.2,332.8,435.2z"/>
	<path style="fill:#4D007E;" d="M187.733,418.133c-18.825,0-34.133-15.309-34.133-34.133c0-18.825,15.309-34.133,34.133-34.133
		c18.825,0,34.133,15.309,34.133,34.133C221.867,402.825,206.558,418.133,187.733,418.133z M187.733,366.933
		c-9.412,0-17.067,7.654-17.067,17.067c0,9.412,7.654,17.067,17.067,17.067c9.412,0,17.067-7.654,17.067-17.067
		C204.8,374.588,197.146,366.933,187.733,366.933z"/>
	<path style="fill:#4D007E;" d="M324.267,349.867c-18.825,0-34.133-15.309-34.133-34.133c0-18.825,15.309-34.133,34.133-34.133
		s34.133,15.309,34.133,34.133C358.4,334.558,343.091,349.867,324.267,349.867z M324.267,298.667
		c-9.412,0-17.067,7.654-17.067,17.067c0,9.412,7.654,17.067,17.067,17.067c9.412,0,17.067-7.654,17.067-17.067
		C341.333,306.321,333.679,298.667,324.267,298.667z"/>
	<path style="fill:#4D007E;" d="M187.733,307.2c-4.71,0-8.533-3.814-8.533-8.533c0-4.719,3.823-8.533,8.533-8.533
		c65.877,0,119.467-53.589,119.467-119.467c0-4.719,3.823-8.533,8.533-8.533c4.71,0,8.533,3.814,8.533,8.533
		C324.267,245.948,263.014,307.2,187.733,307.2z"/>
	<path style="fill:#4D007E;" d="M349.867,213.333c-2.185,0-4.369-0.836-6.033-2.5l-28.1-28.1l-28.1,28.1
		c-3.337,3.337-8.73,3.337-12.066,0c-3.337-3.337-3.337-8.73,0-12.066l34.133-34.133c3.337-3.337,8.73-3.337,12.066,0l34.133,34.133
		c3.337,3.337,3.337,8.73,0,12.066C354.236,212.497,352.051,213.333,349.867,213.333z"/>
	<path style="fill:#4D007E;" d="M349.867,110.933H162.133c-4.71,0-8.533-3.814-8.533-8.533V55.723
		c0-16.606,13.508-30.123,30.123-30.123h21.837c6.349,0,12.416-3.089,16.23-8.269C229.777,6.485,242.569,0,256,0
		c13.431,0,26.223,6.485,34.21,17.331c3.814,5.18,9.882,8.269,16.23,8.269h21.837c16.614,0,30.123,13.517,30.123,30.123V102.4
		C358.4,107.119,354.577,110.933,349.867,110.933z M170.667,93.867h170.667V55.723c0-7.194-5.862-13.056-13.056-13.056h-21.837
		c-11.75,0-22.955-5.683-29.969-15.215c-4.864-6.605-12.322-10.385-20.471-10.385c-8.149,0-15.607,3.78-20.463,10.385
		c-7.023,9.532-18.227,15.215-29.978,15.215h-21.837c-7.194,0-13.056,5.862-13.056,13.056V93.867z"/>
	<path style="fill:#4D007E;" d="M409.6,512H102.4c-23.526,0-42.667-19.14-42.667-42.667v-384c0-23.526,19.14-42.667,42.667-42.667
		h59.733c4.71,0,8.533,3.814,8.533,8.533v42.667h170.667V51.2c0-4.719,3.823-8.533,8.533-8.533H409.6
		c23.526,0,42.667,19.14,42.667,42.667v384C452.267,492.86,433.126,512,409.6,512z M102.4,59.733c-14.114,0-25.6,11.486-25.6,25.6
		v384c0,14.114,11.486,25.6,25.6,25.6h307.2c14.114,0,25.6-11.486,25.6-25.6v-384c0-14.114-11.486-25.6-25.6-25.6h-51.2V102.4
		c0,4.719-3.823,8.533-8.533,8.533H162.133c-4.71,0-8.533-3.814-8.533-8.533V59.733H102.4z"/>
	<path style="fill:#4D007E;" d="M392.533,477.867H119.467c-14.114,0-25.6-11.486-25.6-25.6V102.4c0-14.114,11.486-25.6,25.6-25.6
		h42.667c4.71,0,8.533,3.814,8.533,8.533v8.533h170.667v-8.533c0-4.719,3.823-8.533,8.533-8.533h42.667
		c14.114,0,25.6,11.486,25.6,25.6v349.867C418.133,466.381,406.647,477.867,392.533,477.867z M119.467,93.867
		c-4.702,0-8.533,3.823-8.533,8.533v349.867c0,4.71,3.831,8.533,8.533,8.533h273.067c4.702,0,8.533-3.823,8.533-8.533V102.4
		c0-4.71-3.831-8.533-8.533-8.533H358.4v8.533c0,4.719-3.823,8.533-8.533,8.533H162.133c-4.71,0-8.533-3.814-8.533-8.533v-8.533
		H119.467z"/>
	<path style="fill:#4D007E;" d="M264.576,85.333h-17.152c-9.387,0-17.024-7.637-17.024-17.024V51.157
		c0-9.387,7.637-17.024,17.024-17.024h17.152c9.387,0,17.024,7.637,17.024,17.024v17.152
		C281.6,77.696,273.963,85.333,264.576,85.333z M264.576,68.267V76.8V68.267L264.576,68.267z M264.533,51.157L247.424,51.2
		l0.043,17.109l17.075-0.043L264.533,51.157z"/>
</g>
<g>
</g>
<g>
</g>
<g>
</g>
<g>
</g>
<g>
</g>
<g>
</g>
<g>
</g>
<g>
</g>
<g>
</g>
<g>
</g>
<g>
</g>
<g>
</g>
<g>
</g>
<g>
</g>
<g>
</g>
</svg>
