<svg width="58px" height="45px" viewBox="0 0 58 45" version="1.1" xmlns="http://www.w3.org/2000/svg" xmlns:xlink="http://www.w3.org/1999/xlink">
    <title>Strengths icons/on-the-field/Passing</title>
    <g id="Strengths-icons/on-the-field/Passing" stroke="none" stroke-width="1" fill="none" fill-rule="evenodd">
        <g id="Mask" fill="#173ED7">
            <path d="M12.7440802,6.95267428 L1.72149708,16.5886946 L1.73073326,16.58067 C0.295957573,17.8195584 -0.570212243,19.553656 -0.64089282,21.3793888 L-0.995286558,30.5336473 C-1.13946723,34.2579432 1.98573791,37.1270957 5.8484268,36.9956456 L28.4364035,36.2269607 C30.4448914,36.1586104 32.2830562,34.7383493 32.5900794,32.7604297 L32.6152875,32.5649169 C32.6757949,31.981422 32.6012468,31.4261923 32.4185286,30.922818 L32.357,30.767 L32.5607896,30.7374273 C34.3168527,30.4329976 35.8228542,29.107939 36.0981163,27.3346318 L36.1233244,27.139119 C36.204001,26.3611258 36.0445788,25.6333818 35.7087864,25.0118047 L35.676,24.954 L35.7625018,24.9111629 C36.8954352,24.3174056 37.7538323,23.2609027 37.9549854,21.9650243 L37.9801935,21.7695115 C38.1953311,19.694863 36.7030993,17.9775422 34.7119821,17.6779123 L34.598,17.663 L34.6474879,17.548525 C34.7445248,17.2990116 34.8160028,17.0368046 34.8583508,16.7639881 L34.8835589,16.5684753 C35.1255887,14.2344957 33.2067291,12.3527591 30.8476537,12.4330401 L18.325,12.859 L18.8627165,12.0273752 C19.2188141,11.4686374 19.4180537,10.8659929 19.4435636,10.2070527 C19.4792827,9.28440084 19.1556394,8.41293281 18.5327577,7.73185574 L18.4631041,7.65943455 L17.7960609,6.9998809 C16.3849272,5.66693191 14.1799121,5.69230261 12.7440802,6.95267428 Z M14.0634704,8.45574094 C14.7035958,7.89383958 15.6568403,7.85429319 16.2716068,8.32179876 L16.389854,8.42205603 L17.0568972,9.08160968 C17.3258414,9.37568114 17.4603413,9.7349726 17.4450606,10.1296836 C17.4356571,10.3725826 17.3745447,10.5881319 17.2695755,10.7915892 L17.1827481,10.9421534 L14.5691136,14.9881681 L30.9156757,14.431883 C32.1210283,14.390864 33.0581911,15.3141267 32.8820189,16.4572113 C32.7363293,17.3957794 31.8147091,18.1158221 30.8055403,18.2200712 L30.6366529,18.2316761 L20.4324353,18.5789329 C19.9701083,18.5946662 19.5939216,18.9410144 19.5774655,19.3660877 C19.5622753,19.7584631 19.8596104,20.0626926 20.2690768,20.0948007 L20.3736636,20.0970521 L34.0123103,19.6329192 C35.2176629,19.5919002 36.1548257,20.515163 35.9786535,21.6582476 C35.8329639,22.5968157 34.9113437,23.3168583 33.9021749,23.4211074 L33.7332875,23.4327124 L20.2267341,23.89235 C19.7644071,23.9080833 19.3882204,24.2544314 19.3717643,24.6795048 C19.3565741,25.0718802 19.6539092,25.3761097 20.0633757,25.4082178 L20.1679624,25.4104692 L32.1554412,25.0025267 C33.3607938,24.9615077 34.2979566,25.8847705 34.1217844,27.0278551 C33.9760949,27.9664232 33.0544746,28.6864658 32.0453058,28.7907149 L31.8764184,28.8023199 L20.021033,29.2057671 C19.558706,29.2215004 19.1825192,29.5678485 19.1660631,29.9929219 C19.1508729,30.3852973 19.448208,30.6895268 19.8576745,30.7216349 L19.9622612,30.7238862 L28.6474043,30.4283246 C29.8527569,30.3873056 30.7899197,31.3105684 30.6137474,32.453653 C30.4680579,33.3922211 29.5464377,34.1122637 28.5372689,34.2165128 L28.3683815,34.2281178 L5.78040476,34.9968027 C3.11354549,35.0875578 1.02143987,33.2354862 1.00016374,30.8140881 L1.00321639,30.6110165 L1.35761012,21.4567579 C1.4033419,20.2754714 1.94042289,19.1307651 2.85081043,18.2640122 L3.03783038,18.0944391 L14.0634704,8.45574094 Z" id="Hand-2" fill-rule="nonzero" transform="translate(18.500377, 21.501876) rotate(-72.000000) translate(-18.500377, -21.501876) "></path>
            <path d="M40.3712367,35.169503 L38.1232305,32.9215349 L36.2057988,34.8390328 C35.899239,35.1461804 35.4010547,35.1461804 35.0944949,34.8390328 C34.7872433,34.5317865 34.7872433,34.0346976 35.0944949,33.7275501 L37.0117289,31.810151 L34.7636238,29.562084 C34.4565699,29.2550353 34.4565699,28.75765 34.7636238,28.4506012 C35.0701836,28.1435525 35.5685656,28.1435525 35.8751254,28.4506012 L38.1232305,30.6985694 L40.3556222,28.4664132 L38.107517,26.2186427 C37.8002655,25.9116928 37.8002655,25.4142087 38.107517,25.1072588 C38.4140768,24.8002101 38.9122612,24.8002101 39.2187222,25.1072588 L41.4670249,27.3552269 L43.6992189,25.1230708 L41.4512127,22.8751026 C41.1441588,22.5675598 41.1441588,22.0705698 41.4512127,21.7636199 C41.7577725,21.4565712 42.2562533,21.4565712 42.5627143,21.7636199 L44.8107205,24.011588 L46.8321177,21.9897311 C47.1390728,21.6827812 47.6370595,21.6827812 47.9435204,21.9897311 C48.0970968,22.1428107 48.1737862,22.3439192 48.1737862,22.5450277 C48.1737862,22.7466303 48.0970968,22.94764 47.9435204,23.1012138 L45.9222221,25.1230708 L48.1697343,27.3705448 C48.3233106,27.5241186 48.4,27.7257212 48.4,27.9268297 C48.4,28.1279382 48.3233106,28.3289479 48.1697343,28.4825217 C47.8636686,28.7895704 47.3652866,28.7895704 47.0587268,28.4825217 L44.8107205,26.2345535 L42.5785265,28.4670062 L44.8261375,30.7149743 C44.9797138,30.8684493 45.0564032,31.0695578 45.0564032,31.2709627 C45.0564032,31.4720713 44.9797138,31.6733774 44.8261375,31.8269512 C44.5200718,32.1339999 44.0216898,32.1339999 43.7146359,31.8269512 L41.4671237,29.5788842 L39.234732,31.8110404 L41.4825407,34.0592062 C41.636117,34.2126811 41.7128064,34.4139873 41.7128064,34.6151946 C41.7128064,34.8162043 41.636117,35.0176093 41.4825407,35.1711831 C41.1754868,35.4765517 40.6777965,35.4765517 40.3712367,35.169503 M57.2852488,15.8439444 C57.0211643,14.7956799 56.2043773,13.9787896 55.1560177,13.7147039 C47.4228701,11.7665735 38.8957736,13.7979787 32.8464637,19.8470163 C26.7978519,25.895655 24.7664558,34.4227895 26.7148767,42.1560713 C26.979061,43.2042361 27.7958479,44.0211265 28.8441078,44.2851124 C36.5772554,46.233542 45.1044517,44.2022366 51.1535621,38.1530992 C57.2019744,32.1043608 59.2334702,23.5772263 57.2852488,15.8439444" id="Fill-1" transform="translate(42.000000, 29.000000) scale(-1, 1) rotate(-90.000000) translate(-42.000000, -29.000000) "></path>
        </g>
    </g>
</svg>