<svg id="Layer_1" data-name="Layer 1" xmlns="http://www.w3.org/2000/svg" viewBox="0 0 500 472.63"><defs><style>.cls-1{fill:blue;}</style></defs><path class="cls-1" d="M304.62,166.29c-29.72,0-31.18-9.65-31.18-28.16v-101a23.44,23.44,0,0,0-46.88,0v101c0,18.51-1.46,28.16-31.18,28.16a4,4,0,0,0-4,3.91v39.07a4,4,0,0,0,4,3.9c23.22,0,41.6-5.32,54.6-15.83,13,10.51,31.41,15.83,54.63,15.83a4,4,0,0,0,4-3.9V170.2A4,4,0,0,0,304.62,166.29Z" transform="translate(0 -13.69)"/><path class="cls-1" d="M205,270.59c-2.75-24.7-5.58-50.25-5.58-75,0-62.82-6.88-146.33-66.28-146.33C60.94,49.26,0,241,0,361.41c0,3.8-.47,93.38,24.06,118.11,4.48,4.51,9.57,6.79,15.16,6.79,14.76,0,22.1-5.64,32.27-13.43,12.75-9.79,30.21-23.2,74.51-36C221.1,415.25,213.3,345,205,270.59Z" transform="translate(0 -13.69)"/><path class="cls-1" d="M500,361.45C500,241,439.06,49.26,366.85,49.26c-59.41,0-66.27,83.51-66.27,146.33,0,24.75-2.84,50.3-5.59,75-8.27,74.4-16.08,144.66,59,166.32,44.29,12.77,61.75,26.18,74.5,36,10.16,7.8,17.5,13.44,32.27,13.44,5.58,0,10.68-2.28,15.15-6.79C500.47,454.79,500,365.22,500,361.45Z" transform="translate(0 -13.69)"/></svg>