<?xml version="1.0" encoding="utf-8"?>
<!-- Generator: Adobe Illustrator 24.2.3, SVG Export Plug-In . SVG Version: 6.00 Build 0)  -->
<svg version="1.1" id="Layer_1" xmlns="http://www.w3.org/2000/svg" xmlns:xlink="http://www.w3.org/1999/xlink" x="0px" y="0px"
	 viewBox="0 0 74 84" style="enable-background:new 0 0 74 84;" xml:space="preserve">
<style type="text/css">
	.st0{fill:#FFFFFF;}
</style>
<g id="Summary-pages">
	<g id="C4---Control-the-controllables---summary" transform="translate(-143.000000, -179.000000)">
		<g id="Strategies_x2F_-Contol-the-Controllables" transform="translate(143.000000, 179.000000)">
			<g id="Combined-Shape" transform="translate(36.971844, 41.606075) scale(-1, 1) translate(-36.971844, -41.606075) ">
				<path id="path-1_1_" class="st0" d="M53.5,43.7c-4.2,0-8,1.2-11.2,3.4l0,0H12.5C6,47.1,0.8,52.4,0.8,58.9l0,0v9.4
					c0,6.5,5.3,11.8,11.8,11.8l0,0h29.7c3.2,2.2,7.1,3.5,11.2,3.5c10.9,0,19.9-9,19.9-20S64.4,43.7,53.5,43.7z M53.5,48.1
					c8.5,0,15.4,6.9,15.4,15.5c0,8.6-7,15.6-15.5,15.5c-8.5,0-15.4-6.9-15.4-15.5C38,55,44.9,48.1,53.5,48.1z M12.5,51.5h25.2
					c-2.5,3.3-4.1,7.5-4.1,12.1c0,4.5,1.6,8.7,4.1,12.1l0,0H12.5c-4,0-7.3-3.3-7.3-7.3l0,0v-9.5C5.2,54.8,8.5,51.5,12.5,51.5
					L12.5,51.5z M15.5,56.4l-2.4,2.4l4.6,4.6L13.2,68l2.4,2.4l4.6-4.6l4.6,4.6l2.4-2.4l-4.6-4.6l4.6-4.6l-2.4-2.4L20.2,61L15.5,56.4
					z M20.5,0.4c-11,0-19.9,9-19.9,20c0,11,9,20,19.9,20c4.1,0,7.9-1.3,11.2-3.5l0,0h29.8c6.5,0,11.7-5.3,11.8-11.7l0,0v-9.4
					c0-6.6-5.3-11.8-11.8-11.8l0,0H31.7C28.5,1.7,24.7,0.4,20.5,0.4z M20.5,4.8c8.5,0,15.5,7,15.5,15.6s-7,15.5-15.5,15.5
					c-8.5,0-15.4-6.9-15.4-15.5S12.1,4.8,20.5,4.8z M36.4,8.4h25.1c4,0,7.3,3.2,7.3,7.4l0,0v9.5c0,4-3.3,7.3-7.3,7.3l0,0H36.4
					c2.5-3.4,4.1-7.5,4.1-12.1S38.9,11.7,36.4,8.4L36.4,8.4z M60.1,13.3l-8.7,9.4l-3.6-3.5l-2.5,2.3l6,6.1l11.2-12L60.1,13.3z"/>
			</g>
		</g>
	</g>
</g>
</svg>
