<svg xmlns="http://www.w3.org/2000/svg" viewBox="0 0 588.38 956.89"><defs><style>.cls-1{opacity:0.07;}.cls-2{fill:#fff;}</style></defs><g id="Layer_2" data-name="Layer 2"><g id="Layer_1-2" data-name="Layer 1"><g class="cls-1"><polygon class="cls-2" points="294.34 479.01 188.94 537.83 0 643.42 0 761.06 294.34 596.65 588.38 761.06 588.38 643.42 399.44 537.83 294.34 479.01"/><polygon class="cls-2" points="294.34 240.07 188.94 298.89 0 404.48 0 522.12 294.34 357.71 588.38 522.12 588.38 404.48 399.44 298.89 294.34 240.07"/><polygon class="cls-2" points="588.38 882.36 588.38 956.89 511.28 956.89 294.34 835.59 77.18 956.89 0 956.89 0 882.36 188.94 776.77 294.34 717.95 399.44 776.77 588.38 882.36"/><polygon class="cls-2" points="0 0 0 43.11 77.18 0 0 0"/><polygon class="cls-2" points="588.38 0 511.28 0 588.38 43.11 588.38 0"/><polygon class="cls-2" points="399.44 58.82 294.34 0 188.94 58.82 0 164.41 0 282.05 294.34 117.64 588.38 282.05 588.38 164.41 399.44 58.82"/></g></g></g></svg>