<?xml version="1.0" encoding="UTF-8"?>
<svg width="88px" height="80px" viewBox="0 0 88 80" version="1.1" xmlns="http://www.w3.org/2000/svg" xmlns:xlink="http://www.w3.org/1999/xlink">
    <title>Strategies/Keeping cool Copy</title>
    <defs>
        <path d="M11,76.2142857 C12.7356475,76.2142857 14.1428571,77.6212775 14.1428571,79.3570539 C14.1428571,81.0928302 12.7356475,82.5 11,82.5 C9.26417445,82.5 7.85714286,81.0928302 7.85714286,79.3570539 C7.85714286,77.6212775 9.26417445,76.2142857 11,76.2142857 Z M20.4284824,66.7857143 C23.0321317,66.7857143 25.1428571,68.8963998 25.1428571,71.5 C25.1428571,74.1036002 23.0321317,76.2142857 20.4284824,76.2142857 C17.8248331,76.2142857 15.7142857,74.1036002 15.7142857,71.5 C15.7142857,68.8963998 17.8248331,66.7857143 20.4284824,66.7857143 Z M40.6679865,3.99483587 C48.0074351,3.42349743 55.1267684,6.57601678 59.4689234,12.3195185 C59.7189285,12.2498388 59.9704096,12.1869309 60.2224443,12.1304387 C61.4837246,11.8483336 62.7676991,11.7312502 64.0417104,11.7743768 C64.2966971,11.7831091 64.5511304,11.7980786 64.8048256,11.8194637 C65.3124005,11.8624121 65.8172078,11.9308444 66.3174025,12.0244042 C68.0679917,12.3521308 69.7606462,12.988872 71.3051426,13.9226878 C74.8356574,16.0569202 77.2596921,19.5409085 77.9713302,23.5046358 C83.6107441,25.3180918 87.5584261,30.2411188 87.9654454,35.9687599 C88.3722803,41.6962228 85.1581926,47.0941771 79.8280101,49.6347263 L79.8280101,49.6347263 L79.6455341,49.6978124 L79.6163822,49.7133166 L79.6163822,49.8409143 C80.844636,58.4883337 76.2557971,66.9425744 68.1792486,70.878501 C60.0628469,74.8338524 50.2379233,73.3434896 43.7676807,67.1754937 C39.500435,68.8955681 34.6774584,68.7825835 30.5013585,66.8650534 C26.3252586,64.9471668 23.1901393,61.4054388 21.8775664,57.1230736 C11.0605562,62.9831241 -1.93232869,53.8744995 0.240224841,42.4899663 C0.237457257,42.4749967 0.234136156,42.4603835 0.231553077,42.445414 C0.797985292,39.1216357 2.58455309,36.1059809 5.26449704,33.9503634 C4.83090886,32.0909294 4.77002201,30.1685877 5.08515759,28.2870558 C6.32245219,20.5632943 13.1856918,15.0158225 21.040649,14.9595084 C21.8485991,14.9529147 22.6670659,15.0045954 23.491068,15.1177581 C26.8252688,8.77796868 33.329645,4.56599611 40.6679865,3.99483587 Z M60.9836784,33.6157428 C58.1896059,33.6157428 55.9243544,35.8026102 55.9243544,38.50019 C55.9243544,41.1979598 58.1896059,43.3848272 60.9836784,43.3848272 C63.7781446,43.3848272 66.043396,41.1977698 66.043396,38.50019 C66.043396,35.8026102 63.7781446,33.6157428 60.9836784,33.6157428 Z M43.9996064,33.6157428 C41.2053371,33.6157428 38.9400856,35.8026102 38.9400856,38.50019 C38.9400856,41.1979598 41.2053371,43.3848272 43.9996064,43.3848272 C46.7940725,43.3848272 49.0591272,41.1977698 49.0591272,38.50019 C49.0591272,35.8026102 46.7940725,33.6157428 43.9996064,33.6157428 Z M27.0153375,33.6157428 C24.2210682,33.6157428 21.9558168,35.8026102 21.9558168,38.50019 C21.9558168,41.1979598 24.2208714,43.3848272 27.0153375,43.3848272 C29.8096069,43.3848272 32.0750551,41.1979598 32.0748583,38.50019 C32.0748583,35.8026102 29.8096069,33.6157428 27.0153375,33.6157428 Z" id="path-1"></path>
        <rect id="path-3" x="0" y="0" width="128.857143" height="128.857143"></rect>
    </defs>
    <g id="Summary-pages" stroke="none" stroke-width="1" fill="none" fill-rule="evenodd">
        <g id="C1---Choose-your-thoughts---Summary" transform="translate(-136.000000, -179.000000)">
            <g id="Strategies/Keeping-cool-Copy" transform="translate(136.000000, 176.000000)">
                <mask id="mask-2" >
                    <use xlink:href="#path-1"></use>
                </mask>
                <use id="Combined-Shape" fill="white" xlink:href="#path-1"></use>
                <g id="Group" mask="url(#mask-2)">
                    <g transform="translate(-20.428571, -20.428571)" id="color/brand/primary1">
                        <mask id="mask-4">
                            <use xlink:href="#path-3"></use>
                        </mask>
                        <use id="Rectangle" fill-rule="nonzero" xlink:href="#path-3"></use>
                    </g>
                </g>
            </g>
        </g>
    </g>
</svg>