<svg id="Layer_1" data-name="Layer 1" xmlns="http://www.w3.org/2000/svg" viewBox="0 0 212.82 212.82"><defs><style>.cls-1{fill-rule:evenodd;fill:white;}.cls-2{isolation:isolate;font-size:0.09px;font-family:HelveticaNeue-Bold, Helvetica Neue;font-weight:700;}</style></defs><path class="cls-1" d="M61.59,114a3.46,3.46,0,0,1,.21-1.7l2.5-11.12a41.76,41.76,0,0,0-1.91-24.54l-.57-1.44a8.55,8.55,0,0,0-16.31,1.34l-.93,4.33a89.41,89.41,0,0,1-5.79,17.7l-6.11,13.66a40.53,40.53,0,0,0-2.14,27.06l12.75,47.61a20.81,20.81,0,0,0,25.48,14.71L112.23,190a1.41,1.41,0,0,0-.36-2.77h-34A10.74,10.74,0,0,1,67.13,176.5l0-20c0-9.19.2-18.41-.06-27.6A24.21,24.21,0,0,0,65,119a21.78,21.78,0,0,0-3-4.15A2.36,2.36,0,0,1,61.59,114ZM80.76,10.83h68.51A10.82,10.82,0,0,1,160.1,21.65V78.16a1.4,1.4,0,0,1-1,1.36l-4.46,2.06a1.41,1.41,0,0,1-1.77-1.36V24.11a1.41,1.41,0,0,0-1.41-1.41H78.62a1.41,1.41,0,0,0-1.41,1.41l1.12,141.71a1.41,1.41,0,0,0,1.41,1.41h53.74c3.07,0,3.7,1.93,5.86,3.63,5.78,4.56,12.79,1.21,19-.38a1.41,1.41,0,0,1,1.77,1.36v1.74a10.82,10.82,0,0,1-10.83,10.82H80.76a10.82,10.82,0,0,1-10.83-10.82V21.65A10.82,10.82,0,0,1,80.76,10.83Zm77.86,72.79h0a8.58,8.58,0,0,1,10.51,6.06l.24.9a8.58,8.58,0,0,1-6.07,10.5l-.24.07a8.58,8.58,0,0,1-10.79-8.29v-1A8.56,8.56,0,0,1,158.62,83.62Zm11.34,29-.21-.79a8.57,8.57,0,0,0-10.48-6.07l-3.54.94a8.57,8.57,0,0,0-6.08,10.51l.22.82a8.57,8.57,0,0,0,10.55,6l3.53-1A8.56,8.56,0,0,0,170,112.64ZM139.43,141.4l.19.72a8.59,8.59,0,0,0,10.5,6.07l13.76-3.69A8.57,8.57,0,0,0,170,134l-.19-.73a8.58,8.58,0,0,0-10.5-6.06l-13.77,3.68A8.58,8.58,0,0,0,139.43,141.4Zm-1,21.69.24.89a8.59,8.59,0,0,0,10.51,6.07l12.72-3.42a8.58,8.58,0,0,0,6.07-10.5l-.24-.9a8.59,8.59,0,0,0-10.51-6.06l-12.72,3.41A8.59,8.59,0,0,0,138.45,163.09ZM125.28,15.35H104.75a1.42,1.42,0,0,0-1.42,1.41h0a1.42,1.42,0,0,0,1.42,1.41h20.53a1.41,1.41,0,0,0,1.41-1.41h0A1.41,1.41,0,0,0,125.28,15.35Z"/><text class="cls-2" transform="translate(19.48 203.75)">Created by Hadi Davodpour</text><text class="cls-2" transform="translate(19.48 203.83)">from the Noun Project</text></svg>