<?xml version="1.0" encoding="UTF-8"?>
<svg width="388px" height="436px" viewBox="0 0 388 436" version="1.1" xmlns="http://www.w3.org/2000/svg" xmlns:xlink="http://www.w3.org/1999/xlink">
    <title>Fill 1</title>
    <g id="Facilitator-screens" stroke="none" stroke-width="1" fill="none" fill-rule="evenodd">
        <g id="Facilitator-slide-14" transform="translate(-300.000000, -720.000000)" fill="#FFFFFF">
            <path d="M518.946,738.679 L519.054,738.679 C520.872,738.679 522.366,740.173 522.366,742.009 C522.366,743.845 520.872,745.321 519.054,745.321 L518.946,745.321 C517.128,745.321 515.634,743.827 515.634,742.009 C515.652,740.173 517.146,738.679 518.946,738.679 L518.946,738.679 Z M530.43426,738.679 L568.56574,738.679 C570.45085,738.679 572,740.173 572,742.009 C572,743.845 570.45085,745.321 568.56574,745.321 L530.43426,745.321 C528.54915,745.321 527,743.827 527,742.009 C527.018664,740.173 528.567814,738.679 530.43426,738.679 L530.43426,738.679 Z M599,1013.29249 C599,1003.0908 608.666471,993 620.744957,993 L665.799919,993 C687.434402,993 693.086986,1021.01768 680.087884,1033.08598 C675.263854,1037.53998 670.439825,1039 661.914918,1039 L623.06491,1039 C616.012989,1039 609.955334,1036.93009 606.143982,1033.38168 C599.184123,1026.96866 599,1021.25793 599,1013.29249 L599,1013.29249 Z M599,960.173682 C599,950.335104 608.889627,940 618.556598,940 L667.893405,940 C673.960774,940 679.508614,943.843482 682.588685,947.153658 C694.278113,959.640376 685.835748,985 668.6727,985 L619.335893,985 C608.036113,985 599,975.198202 599,964.053944 L599,960.173682 Z M422.803494,857.499449 C409.084802,864.742097 396.218893,872.853123 382.388969,880.372913 C371.896023,886.082041 338.173995,904.299517 332.649441,909.528265 L324.844617,917.325197 C309.605746,932.641919 300,964.605645 300,988.439868 C300,1011.07314 299.613347,1023.4152 308.252415,1044.90296 C313.906741,1059.03721 323.083434,1070.03051 334.299391,1078.97296 C361.254767,1100.44224 391.491506,1099.14891 422.784955,1099.14891 L422.784955,1131.87016 C422.784955,1137.52386 427.419649,1145.43165 430.42293,1148.42478 C432.054342,1150.05068 435.650864,1152.39715 437.764284,1153.54267 C440.563639,1155.07619 443.56692,1156 447.608372,1156 L447.812299,1156 L631.624234,1156 C637.8718,1156 645.194616,1151.34401 648.438901,1147.8705 C652.23935,1143.82422 655.85441,1137.7271 655.85441,1130.31816 L655.85441,1092.1095 L664.456401,1092.1095 C693.191499,1092.1095 696.880715,1046.14086 661.323348,1046.14086 L640.74531,1046.14086 C618.869558,1046.14086 612.436604,1065.50386 618.610015,1079.91525 C620.05604,1083.25943 621.446448,1084.64514 624.13457,1086.58513 C626.507533,1088.28494 636.314544,1090.31732 636.314544,1090.31732 L636.314544,1106.15137 L442.343361,1106.15137 L442.343361,914.405967 C442.343361,912.207306 460.140583,900.936859 464.256191,898.054581 L502.353369,868.973133 C512.01207,860.862107 521.318534,851.956606 521.318534,838.025595 C521.318534,827.364861 513.180013,818.533266 502.575835,818.533266 C490.043624,818.533266 479.865838,826.274769 471.022843,830.745995 L442.343361,846.580049 L442.343361,762.86465 L636.314544,762.86465 L636.314544,886.340707 C628.454104,886.340707 614.438791,886.525468 609.433323,889.167557 C590.486696,899.181626 595.696092,932.309348 619.092023,932.309348 L666.810825,932.309348 C676.098751,932.309348 686.350692,922.849564 686.350692,913.611492 C686.350692,904.521231 687.055165,897.740486 677.878473,890.867362 C672.149992,886.562421 664.252475,886.322231 655.872949,886.322231 L655.872949,745.71879 C655.872949,738.291381 652.257888,732.21273 648.45744,728.147979 C645.213155,724.674464 637.8718,720 631.624234,720 L447.830838,720 C438.820994,720 431.590872,725.709128 427.69773,731.104161 C421.95071,739.085855 422.803494,744.554793 422.803494,757.414188 L422.803494,857.499449 Z" id="Fill-1"></path>
        </g>
    </g>
</svg>