<?xml version="1.0" encoding="UTF-8"?>
<svg width="196px" height="169px" viewBox="0 0 196 169" version="1.1" xmlns="http://www.w3.org/2000/svg" xmlns:xlink="http://www.w3.org/1999/xlink">
    <title>Group</title>
    <g id="C1---Choose-your-thoughts" stroke="none" stroke-width="1" fill="none" fill-rule="evenodd">
        <g id="6" transform="translate(-90.000000, -252.000000)" fill="#FFFFFF">
            <g id="Group" transform="translate(90.000000, 252.000000)">
                <polygon id="Line" fill-rule="nonzero" points="96.1401928 -6.13908924e-14 99.7401531 0.0169012222 99.7317025 1.81688139 99.6428023 20.7170708 107.562882 20.7542783 97.7517223 40.1484308 88.1230961 20.6630117 96.0428023 20.6997908 96.1317422 1.79998016"></polygon>
                <g id="phone-down" transform="translate(0.000000, 45.008431)">
                    <g id="Group-3" transform="translate(97.631722, 61.500000) scale(-1, 1) translate(-97.631722, -61.500000) translate(0.131722, 0.000000)">
                        <path d="M194.827685,36.3879881 C194.718067,38.5800356 194.57191,40.8086172 194.462292,43.0006647 C194.462292,43.0006647 194.462292,43.0371988 194.462292,43.0371988 C194.462292,43.0371988 194.462292,43.0737329 194.462292,43.0737329 C194.462292,43.0737329 194.462292,43.1102671 194.462292,43.1102671 C194.462292,43.1102671 194.462292,43.1468012 194.462292,43.1468012 C194.462292,43.2198694 194.462292,43.2564036 194.425753,43.3294718 C194.425753,43.4025401 194.425753,43.4390742 194.389213,43.5121424 C194.389213,43.5486766 194.389213,43.5486766 194.389213,43.5852107 C194.389213,43.5852107 194.389213,43.5852107 194.389213,43.6217448 C194.389213,43.6582789 194.389213,43.6948131 194.389213,43.7313472 C194.389213,43.8044154 194.352674,43.8409496 194.352674,43.9140178 C194.352674,43.9870861 194.316135,44.0236202 194.316135,44.0966884 C194.316135,44.1332226 194.279596,44.1697567 194.279596,44.2428249 C194.279596,44.2428249 194.279596,44.2428249 194.279596,44.2428249 C194.279596,44.2428249 194.279596,44.2428249 194.279596,44.2428249 C194.279596,44.2428249 194.279596,44.2793591 194.279596,44.2793591 C194.243056,44.3524273 194.243056,44.3889614 194.206517,44.4620297 C194.169978,44.5350979 194.169978,44.571632 194.133438,44.6447003 C194.096899,44.7177685 194.06036,44.7908368 194.02382,44.8273709 C194.02382,44.8273709 194.02382,44.8273709 194.02382,44.8273709 C193.987281,44.9004392 193.950742,44.9369733 193.914202,45.0100415 C193.877663,45.0831098 193.841124,45.1196439 193.804584,45.1927122 C193.768045,45.2657804 193.731506,45.3023145 193.694966,45.3753828 C193.694966,45.3753828 193.694966,45.3753828 193.694966,45.3753828 C193.694966,45.3753828 193.694966,45.3753828 193.694966,45.3753828 C193.694966,45.3753828 193.694966,45.3753828 193.694966,45.3753828 C193.658427,45.448451 193.585348,45.5215193 193.548809,45.5580534 C193.51227,45.6311217 193.439191,45.7041899 193.366112,45.7772582 C193.329573,45.8137923 193.293034,45.8503264 193.256494,45.8868605 C193.256494,45.8868605 193.219955,45.9233947 193.219955,45.9233947 C193.219955,45.9233947 193.183416,45.9599288 193.183416,45.9599288 C193.110337,46.032997 193.073798,46.1060653 193.000719,46.1791335 C192.92764,46.2522018 192.818022,46.32527 192.744944,46.4348724 C192.744944,46.4348724 192.708404,46.4714065 192.708404,46.4714065 C192.708404,46.4714065 192.708404,46.4714065 192.708404,46.4714065 C192.708404,46.4714065 192.708404,46.4714065 192.671865,46.5079407 C192.562247,46.617543 192.452629,46.7271454 192.306472,46.8002136 C192.269933,46.8367478 192.196854,46.8732819 192.123775,46.9463501 C192.087236,46.9828843 192.050697,46.9828843 192.014157,47.0194184 C191.977618,47.0559525 191.941079,47.0559525 191.904539,47.0924866 C191.758382,47.202089 191.612225,47.2751573 191.466067,47.3847596 C191.466067,47.3847596 191.429528,47.3847596 191.429528,47.4212938 C191.429528,47.4212938 191.392989,47.4212938 191.392989,47.4578279 C191.392989,47.4578279 191.356449,47.4578279 191.356449,47.494362 C191.356449,47.494362 191.31991,47.494362 191.31991,47.5308961 L72.0555506,120.562611 C71.8363146,120.708748 71.5805393,120.854884 71.324764,120.964487 C71.2516854,121.001021 71.1786067,121.037555 71.1055281,121.074089 C71.0324494,121.110623 70.9228315,121.147157 70.8497528,121.183691 C70.7766742,121.220226 70.6670562,121.293294 70.5939775,121.329828 C70.3747416,121.43943 70.1555056,121.512499 69.9362697,121.622101 C69.8997303,121.622101 69.863191,121.658635 69.8266517,121.658635 C69.8266517,121.658635 69.7901124,121.658635 69.7901124,121.658635 C69.5343371,121.768237 69.2420225,121.87784 68.9862472,121.950908 C68.9131685,121.987442 68.8035506,121.987442 68.7304719,122.023976 C68.6573933,122.06051 68.6208539,122.06051 68.5477753,122.097045 C68.4746966,122.133579 68.401618,122.133579 68.3285393,122.170113 C68.1093034,122.243181 67.8900674,122.316249 67.6708315,122.352783 C67.5977528,122.352783 67.5246742,122.389318 67.4881348,122.389318 C67.4515955,122.389318 67.4515955,122.389318 67.4150562,122.389318 C67.3785169,122.389318 67.3419775,122.389318 67.3054382,122.425852 C67.1958202,122.462386 67.0862022,122.462386 67.0131236,122.49892 C66.7938876,122.535454 66.5746517,122.608522 66.3188764,122.645056 C66.2823371,122.645056 66.2092584,122.681591 66.1361798,122.681591 C66.0996404,122.681591 66.0996404,122.681591 66.0631011,122.681591 C65.9900225,122.681591 65.9169438,122.718125 65.8438652,122.718125 C65.6977079,122.754659 65.5515506,122.754659 65.4053933,122.791193 C65.259236,122.827727 65.1130787,122.827727 64.9669213,122.864261 C64.930382,122.864261 64.8573034,122.864261 64.820764,122.864261 C64.7842247,122.864261 64.7842247,122.864261 64.7476854,122.864261 C64.6746067,122.864261 64.6015281,122.900795 64.4919101,122.900795 C64.3457528,122.900795 64.2361348,122.937329 64.0899775,122.937329 C63.9438202,122.937329 63.8342022,122.973864 63.6880449,122.973864 C63.6149663,122.973864 63.5053483,122.973864 63.4322697,122.973864 L63.3957303,122.973864 C63.359191,122.973864 63.3226517,122.973864 63.2861124,122.973864 C63.1399551,122.973864 63.0303371,122.973864 62.8841798,122.973864 C62.7745618,122.973864 62.6284045,122.973864 62.5187865,122.973864 C62.4091685,122.973864 62.2630112,122.973864 62.1533933,122.973864 L62.1168539,122.973864 L62.1168539,122.973864 L62.0803146,122.973864 C62.007236,122.973864 61.9341573,122.973864 61.8610787,122.973864 C61.7514607,122.973864 61.6053034,122.973864 61.4956854,122.973864 C61.3860674,122.973864 61.2764494,122.973864 61.1302921,122.973864 C61.0206742,122.973864 60.9110562,122.973864 60.8014382,122.973864 C60.8014382,122.973864 60.7648989,122.973864 60.7648989,122.973864 C60.7648989,122.973864 60.7648989,122.973864 60.7648989,122.973864 C60.6552809,122.973864 60.5822022,122.973864 60.4725843,122.937329 C60.3629663,122.937329 60.2533483,122.937329 60.1437303,122.900795 C60.0341124,122.900795 59.9244944,122.864261 59.8148764,122.864261 C59.7052584,122.864261 59.5956404,122.827727 59.4860225,122.827727 C59.4860225,122.827727 59.4860225,122.827727 59.4860225,122.827727 C59.3764045,122.827727 59.2667865,122.791193 59.1571685,122.791193 C59.0475506,122.791193 58.9379326,122.754659 58.8283146,122.754659 C58.7186966,122.754659 58.6090787,122.718125 58.4629213,122.718125 C58.3898427,122.718125 58.2802247,122.681591 58.2071461,122.681591 C58.2071461,122.681591 58.1706067,122.681591 58.1706067,122.681591 C58.1340674,122.681591 58.1340674,122.681591 58.0975281,122.681591 C57.9879101,122.645056 57.8782921,122.645056 57.7686742,122.608522 C57.6590562,122.571988 57.5494382,122.571988 57.4398202,122.535454 C57.3302022,122.49892 57.1840449,122.462386 57.074427,122.462386 C57.0378876,122.462386 57.0013483,122.425852 56.964809,122.425852 C56.964809,122.425852 56.964809,122.425852 56.9282697,122.425852 C56.9282697,122.425852 56.9282697,122.425852 56.8917303,122.425852 C56.8186517,122.425852 56.7821124,122.389318 56.7090337,122.389318 C56.5994157,122.352783 56.4532584,122.316249 56.3436404,122.279715 C56.2340225,122.243181 56.0878652,122.206647 55.9782472,122.170113 C55.9051685,122.133579 55.7955506,122.097045 55.7224719,122.097045 C55.6859326,122.097045 55.6859326,122.097045 55.6493933,122.06051 C55.6128539,122.06051 55.5763146,122.06051 55.5397753,122.023976 C55.393618,121.987442 55.2474607,121.914374 55.1378427,121.87784 C54.9916854,121.841306 54.8455281,121.768237 54.7359101,121.731703 C54.6628315,121.695169 54.6262921,121.695169 54.5532135,121.658635 C54.5166742,121.658635 54.5166742,121.622101 54.4801348,121.622101 C54.4435955,121.585567 54.3705169,121.585567 54.3339775,121.549033 C54.1512809,121.475964 54.0051236,121.402896 53.822427,121.329828 C53.712809,121.25676 53.5666517,121.220226 53.4570337,121.147157 C53.4204944,121.147157 53.4204944,121.110623 53.3839551,121.110623 C53.3474157,121.110623 53.3474157,121.074089 53.3108764,121.074089 C53.1647191,121.001021 52.9820225,120.891418 52.8358652,120.81835 C52.6897079,120.708748 52.5070112,120.63568 52.3608539,120.526077 L4.01932584,89.7643442 C3.47123596,89.399003 2.99622472,89.0336617 2.59429213,88.6683205 C2.19235955,88.2664451 1.82696629,87.8645697 1.57119101,87.4626944 C1.2788764,87.0242849 1.05964045,86.5858754 0.913483146,86.184 C0.767325843,85.7455905 0.657707865,85.307181 0.657707865,84.8322374 C0.548089888,82.6036558 0.43847191,80.4116083 0.292314607,78.1830267 C0.511550562,78.5849021 0.803865169,78.9867774 1.1327191,79.3886528 C2.00966292,80.3750742 3.1058427,81.0692226 4.16548315,81.7268368 L51.7031461,111.794421 C54.5166742,113.584593 58.0609888,114.497947 61.9341573,114.497947 C65.8073258,114.461412 69.3881798,113.548059 72.2017079,111.830955 L178.494607,47.2751573 C179.773483,46.5079407 181.01582,45.740724 182.294697,44.9735074 L189.566022,40.5163442 C189.858337,40.3336736 190.150652,40.151003 190.442966,39.9683323 C192.087236,39.0549792 193.877663,37.9954896 194.827685,36.3879881 L194.827685,36.3879881 Z M171.80791,31.5654837 C171.954067,31.3462789 172.136764,31.1636083 172.356,30.9444036 C172.575236,30.7617329 172.831011,30.5790623 173.123326,30.3963917 C173.41564,30.2137211 173.744494,30.0675846 174.109888,29.9579822 C174.438742,29.8483798 174.804135,29.7387774 175.169528,29.6291751 L175.169528,29.6291751 L175.206067,29.6291751 C175.206067,29.6291751 175.206067,29.6291751 175.242607,29.6291751 L175.242607,29.6291751 C175.973393,29.4465045 176.777258,29.3734362 177.581124,29.3734362 C177.983056,29.3734362 178.384989,29.4099703 178.786921,29.4465045 L178.786921,29.4465045 C179.188854,29.4830386 179.590787,29.5561068 179.95618,29.6291751 L179.95618,29.6291751 C180.321573,29.7022433 180.723506,29.8118457 181.05236,29.9579822 C181.417753,30.0675846 181.783146,30.2502552 182.075461,30.3963917 C182.733169,30.7251988 183.20818,31.1270742 183.537034,31.5654837 C183.537034,31.5654837 183.573573,31.6020178 183.573573,31.6020178 C183.646652,31.6750861 183.683191,31.7846884 183.71973,31.8577567 L183.71973,31.8577567 L183.71973,31.8577567 C183.829348,32.0038932 183.902427,32.1500297 183.938966,32.2961662 C183.975506,32.4057685 184.012045,32.4788368 184.012045,32.5884392 C184.048584,32.6980415 184.085124,32.7711098 184.085124,32.8807122 C184.121663,33.3191217 183.975506,33.7940653 183.683191,34.1959407 C183.390876,34.6343501 182.952404,34.9996914 182.367775,35.3650326 C181.783146,35.6938398 181.088899,35.9861128 180.321573,36.1322493 C179.554247,36.3149199 178.750382,36.3879881 177.946517,36.3879881 C177.142652,36.3879881 176.302247,36.3149199 175.534921,36.1322493 C174.767596,35.9495786 174.036809,35.6938398 173.379101,35.3650326 C172.721393,35.0362255 172.246382,34.597816 171.917528,34.1959407 C171.588674,33.7575312 171.405978,33.3191217 171.369438,32.8807122 C171.405978,32.4423027 171.515596,32.0038932 171.80791,31.5654837 L171.80791,31.5654837 Z M171.004045,31.4193472 C171.186742,31.2001424 171.369438,30.9444036 171.625213,30.7251988 C171.880989,30.5059941 172.173303,30.2867893 172.502157,30.1041187 C172.831011,29.9214481 173.196404,29.7387774 173.598337,29.5926409 C174.00027,29.4465045 174.402202,29.3369021 174.804135,29.2272997 L174.804135,29.2272997 L174.840674,29.2272997 C174.840674,29.2272997 174.840674,29.2272997 174.877213,29.2272997 L174.877213,29.2272997 C175.717618,29.0446291 176.631101,28.9350267 177.544584,28.9350267 C178.019596,28.9350267 178.458067,28.9715608 178.896539,29.008095 L178.896539,29.008095 C179.335011,29.0446291 179.810022,29.1176973 180.211955,29.2272997 L180.211955,29.2272997 C180.650427,29.3369021 181.088899,29.4465045 181.454292,29.5926409 C181.856225,29.7387774 182.258157,29.9214481 182.623551,30.1041187 C183.354337,30.5059941 183.902427,30.9444036 184.26782,31.4193472 C184.26782,31.4193472 184.30436,31.4558813 184.30436,31.4558813 C184.377438,31.5654837 184.413978,31.6385519 184.487056,31.7481543 L184.487056,31.7481543 L184.487056,31.7481543 C184.596674,31.8942908 184.669753,32.0769614 184.742831,32.2230979 C184.779371,32.3327003 184.81591,32.4423027 184.81591,32.551905 C184.852449,32.6615074 184.888989,32.7711098 184.888989,32.8807122 C184.925528,33.3921899 184.779371,33.9036677 184.450517,34.3786113 C184.121663,34.8535549 183.646652,35.2919644 182.952404,35.6938398 C182.294697,36.0957151 181.490831,36.3879881 180.613888,36.5706588 C179.773483,36.7533294 178.86,36.8629318 177.946517,36.8629318 C177.033034,36.8629318 176.083011,36.7533294 175.206067,36.5706588 C174.329124,36.3879881 173.525258,36.0957151 172.757933,35.6938398 C172.027146,35.2919644 171.479056,34.8535549 171.077124,34.3786113 C170.71173,33.9036677 170.492494,33.3921899 170.455955,32.8807122 C170.529034,32.4057685 170.675191,31.8942908 171.004045,31.4193472 L171.004045,31.4193472 Z M172.502157,31.7481543 C172.648315,31.5654837 172.794472,31.3828131 172.977169,31.2001424 C173.159865,31.0174718 173.41564,30.8713353 173.671416,30.7251988 C173.927191,30.5790623 174.219506,30.4329258 174.54836,30.3233234 C174.840674,30.2137211 175.169528,30.1041187 175.498382,30.0310504 L175.498382,30.0310504 L175.534921,30.0310504 C175.534921,30.0310504 175.534921,30.0310504 175.571461,30.0310504 L175.571461,30.0310504 C176.229169,29.8849139 176.923416,29.8118457 177.654202,29.8118457 C178.019596,29.8118457 178.384989,29.8483798 178.713843,29.8849139 L178.713843,29.8849139 C179.079236,29.9214481 179.40809,29.9945163 179.736944,30.0675846 L179.736944,30.0675846 C180.065798,30.1406528 180.394652,30.2502552 180.723506,30.3598576 C181.05236,30.4694599 181.344674,30.6155964 181.636989,30.7617329 C182.221618,31.0540059 182.623551,31.4193472 182.952404,31.7846884 C182.952404,31.7846884 182.988944,31.8212226 182.988944,31.8212226 C183.062022,31.8942908 183.098562,31.9673591 183.135101,32.0404273 L183.135101,32.0404273 L183.135101,32.0404273 C183.20818,32.1500297 183.281258,32.2961662 183.317798,32.4057685 C183.354337,32.4788368 183.354337,32.5884392 183.390876,32.6615074 C183.427416,32.7711098 183.463955,32.844178 183.463955,32.9172463 C183.500494,33.3191217 183.390876,33.720997 183.135101,34.0863383 C182.879326,34.4516795 182.513933,34.8170208 181.965843,35.1092938 C181.454292,35.4015668 180.833124,35.6573056 180.138876,35.8034421 C179.481169,35.9495786 178.750382,36.0226469 178.056135,36.0226469 C177.325348,36.0226469 176.594562,35.9495786 175.936854,35.8034421 C175.242607,35.6573056 174.621438,35.4381009 174.036809,35.1092938 C173.45218,34.8170208 173.050247,34.4516795 172.721393,34.0863383 C172.429079,33.720997 172.282921,33.3191217 172.246382,32.9172463 C172.136764,32.5153709 172.246382,32.1134955 172.502157,31.7481543 L172.502157,31.7481543 Z M4.45779775,80.6308131 L12.4599101,85.7090564 L51.9589213,110.698398 C54.6993708,112.415501 58.1340674,113.328855 61.9341573,113.328855 C65.7342472,113.328855 69.1689438,112.415501 71.9459326,110.771466 L178.238831,46.2156677 C179.517708,45.448451 180.760045,44.6812344 182.002382,43.9140178 L189.273708,39.4568546 C189.566022,39.274184 189.858337,39.0915134 190.187191,38.9088427 C192.306472,37.6666825 194.718067,36.2418516 194.937303,33.6844629 C194.937303,33.5017923 194.937303,33.3191217 194.900764,33.136451 C194.791146,32.1865638 194.389213,31.2732107 193.658427,30.3963917 C192.92764,29.5195727 191.904539,28.715822 190.589124,28.0216736 L142.174517,2.33818398 C140.93218,1.68056973 139.507146,1.16909199 137.972494,0.840284866 C136.474382,0.511477745 134.866652,0.328807122 133.258921,0.328807122 C131.651191,0.328807122 130.08,0.511477745 128.581888,0.840284866 C127.083775,1.16909199 125.695281,1.68056973 124.526022,2.33818398 L4.67703371,69.0860297 C3.28853933,69.8532463 2.22889888,70.7665994 1.46157303,71.7164866 C0.694247191,72.6663739 0.292314607,73.6893294 0.182696629,74.7122849 C0.146157303,74.9314896 0.146157303,75.1506944 0.182696629,75.333365 C0.182696629,75.4064332 0.182696629,75.4795015 0.182696629,75.5525697 C0.182696629,75.625638 0.219235955,75.6987062 0.219235955,75.7717745 C0.365393258,76.6120593 0.803865169,77.5619466 1.53465169,78.3656973 C2.33851685,79.3155846 3.3981573,80.0097329 4.45779775,80.6308131 L4.45779775,80.6308131 Z" id="Fill-1"></path>
                    </g>
                </g>
            </g>
        </g>
    </g>
</svg>