<?xml version="1.0" encoding="UTF-8"?>
<svg width="68px" height="84px" viewBox="0 0 68 84" version="1.1" xmlns="http://www.w3.org/2000/svg" xmlns:xlink="http://www.w3.org/1999/xlink">
    <title>Strategies/Strengths</title>
    <defs>
        <path d="M33.8507463,36 C37.0366989,36 39.8244074,38.8 39.8244074,42 C39.8244074,45.2 37.0366989,48 33.8507463,48 L33.8507463,48 L15.9297629,48 C14.7350307,48 13.9385426,48.8 13.9385426,50 C13.9385426,51.2 14.7350307,52 15.9297629,52 L15.9297629,52 L17.9209833,52 C25.4876207,52 31.8595259,58.4 31.8595259,66 C31.8595259,67.2 32.656014,68 33.8507463,68 C35.0454785,68 35.8419666,67.2 35.8419666,66 C35.8419666,60.4 33.0542581,55.2 29.0718174,52 L29.0718174,52 L33.8507463,52 C39.4261633,52 43.8068481,47.6 43.8068481,42 C43.8068481,41.2 43.408604,40.4 43.408604,39.6 C44.2050922,40 45.0015803,40 45.7980685,40 C48.9840211,40 51.7717296,38.4 53.76295,36 C55.7541703,38.4 58.5418788,40 61.7278314,40 C64.1172959,40 66.1085162,39.2 67.7014925,38 L67.7014925,38 L67.7014925,64 C67.7014925,70.8 64.1172959,76 59.7366111,76 L59.7366111,76 L59.7366111,81.348 C59.7366111,85.02 56.7696927,88 53.1138121,88 L53.1138121,88 L22.5525619,88 C18.8966813,88 15.9297629,85.02 15.9297629,81.348 L15.9297629,81.348 L15.9297629,80 L15.9456927,76 C5.98959087,76 0,64.4 0,50 L0,50 L0,44 C0,39.6 3.58419666,36 7.96488147,36 L7.96488147,36 Z M61.7278314,8 C64.913784,8 67.7014925,10.8 67.7014925,14 L67.7014925,14 L67.7014925,30 C67.7014925,33.2 64.913784,36 61.7278314,36 C58.5418788,36 55.7541703,33.2 55.7541703,30 L55.7541703,30 L55.7541703,14 C55.7541703,10.8 58.5418788,8 61.7278314,8 Z M45.7980685,4 C48.9840211,4 51.7717296,6.8 51.7717296,10 L51.7717296,10 L51.7717296,30 C51.7717296,33.2 48.9840211,36 45.7980685,36 C42.6121159,36 39.8244074,33.2 39.8244074,30 L39.8244074,30 L39.8244074,10 C39.8244074,6.8 42.6121159,4 45.7980685,4 Z M29.8683055,4 C33.0542581,4 35.8419666,6.8 35.8419666,10 L35.8419666,10 L35.8419666,32 L23.8946444,32 L23.8946444,10 C23.8946444,6.8 26.6823529,4 29.8683055,4 Z M13.9385426,8 C17.1244952,8 19.9122037,10.8 19.9122037,14 L19.9122037,14 L19.9122037,32 L7.96488147,32 L7.96488147,14 C7.96488147,10.8 10.75259,8 13.9385426,8 Z" id="path-1"></path>
        <rect id="path-3" x="0" y="0" width="71.6839333" height="88"></rect>
    </defs>
    <g id="Summary-pages" stroke="none" stroke-width="1" fill="none" fill-rule="evenodd">
        <g id="C3---playing-to-your-strengths---summary" transform="translate(-145.000000, -180.000000)">
            <g id="Strategies/Strengths" transform="translate(145.000000, 176.000000)">
                <mask id="mask-2" fill="white">
                    <use xlink:href="#path-1"></use>
                </mask>
                <use id="Combined-Shape" fill="#FFFFFF" xlink:href="#path-1"></use>
                <g id="Group" mask="url(#mask-2)">
                    <g id="color/brand/primary1">
                        <mask id="mask-4" fill="white">
                            <use xlink:href="#path-3"></use>
                        </mask>
                        <use id="Rectangle" fill="#FFFFFF" fill-rule="nonzero" xlink:href="#path-3"></use>
                    </g>
                </g>
            </g>
        </g>
    </g>
</svg>