<?xml version="1.0" encoding="UTF-8"?>
<svg width="80px" height="78px" viewBox="0 0 80 78" version="1.1" xmlns="http://www.w3.org/2000/svg" xmlns:xlink="http://www.w3.org/1999/xlink">
    <title>Strategies/Plan</title>
    <defs>
        <path d="M61.0261366,1.29152258 L79.0705407,12.7376032 L67.6375349,30.8107645 L63.2070063,27.9718613 L69.7266858,17.6661839 C56.8287266,19.6106032 44.9434961,26.0287161 34.3818191,36.7587 C30.3143442,40.8909097 26.608649,45.5022161 23.3679174,50.4613774 C22.6074155,51.6285387 21.8889514,52.7906032 21.232907,53.9131677 L21.232907,53.9131677 L20.8545669,54.5706516 C23.9921149,57.0311194 25.8506949,60.8269419 25.8506949,64.8291839 C25.8506949,72.0016194 20.0520272,77.8361516 12.9247105,77.8361516 C5.79866767,77.8361516 -5.88341559e-14,72.0016194 -5.88341559e-14,64.8291839 C-5.88341559e-14,57.6580226 5.79866767,51.8234903 12.9247105,51.8234903 C14.0036805,51.8234903 15.0813767,51.9611032 16.1361431,52.2337806 L16.1361431,52.2337806 L16.696647,51.2539258 C17.4010985,50.0421677 18.1679698,48.8011032 18.9781527,47.5638613 C22.4086914,42.3103613 26.3347664,37.4251032 30.6468249,33.0457 C41.9881119,21.5218935 54.8211036,14.6004742 68.7980328,12.4636516 L68.7980328,12.4636516 L58.2261648,5.76011935 L61.0261366,1.29152258 Z M74.1565775,53.5154919 L77.8164132,57.1775242 L69.8381497,65.1565242 L77.8164132,73.1355242 L74.1565775,76.7988306 L66.1783139,68.8185565 L58.2000504,76.7988306 L54.5389408,73.1355242 L62.5172043,65.1565242 L54.5389408,57.1775242 L58.2000504,53.5154919 L66.1783139,61.4957661 L74.1565775,53.5154919 Z M12.6750315,57.4490548 C8.42539279,57.4490548 4.9681028,60.9072161 4.9681028,65.1592 C4.9681028,69.4086355 8.42539279,72.8667968 12.6750315,72.8667968 C16.9246702,72.8667968 20.3819602,69.4086355 20.3819602,65.1592 C20.3819602,60.9072161 16.9246702,57.4490548 12.6750315,57.4490548 Z M20.6525307,4.52684485e-15 L24.3136403,3.66203226 L16.3353768,11.6423065 L24.3136403,19.6213065 L20.6525307,23.2833387 L12.675541,15.3030645 L4.69600363,23.2833387 L1.0361679,19.6213065 L9.01697919,11.6423065 L1.0361679,3.66203226 L4.69600363,4.52684485e-15 L12.675541,7.98027419 L20.6525307,4.52684485e-15 Z" id="path-1"></path>
        <rect id="path-3" x="0" y="0" width="239.488032" height="239.548387"></rect>
    </defs>
    <g id="Summary-pages" stroke="none" stroke-width="1" fill="none" fill-rule="evenodd">
        <g id="C2---Make-a-plan----summary" transform="translate(-139.000000, -187.000000)">
            <g id="Strategies/Plan" transform="translate(139.873016, 186.968750)">
                <mask id="mask-2" fill="white">
                    <use xlink:href="#path-1"></use>
                </mask>
                <use id="Combined-Shape" fill="#FFFFFF" xlink:href="#path-1"></use>
                <g id="Group" mask="url(#mask-2)">
                    <g transform="translate(-12.738725, -14.016129)" id="color/brand/primary1">
                        <mask id="mask-4" fill="white">
                            <use xlink:href="#path-3"></use>
                        </mask>
                        <use id="Rectangle" fill="#FFFFFF" fill-rule="nonzero" xlink:href="#path-3"></use>
                    </g>
                </g>
            </g>
        </g>
    </g>
</svg>