<?xml version="1.0" encoding="utf-8"?>
<!-- Generator: Adobe Illustrator 24.2.3, SVG Export Plug-In . SVG Version: 6.00 Build 0)  -->
<svg version="1.1" id="Capa_1" xmlns="http://www.w3.org/2000/svg" xmlns:xlink="http://www.w3.org/1999/xlink" x="0px" y="0px"
	 viewBox="0 0 272 272" style="enable-background:new 0 0 272 272;" xml:space="preserve">
<style type="text/css">
	.st0{fill:white;}
	.st1{stroke:white;fill:white;stroke-width:8;stroke-miterlimit:10;}
</style>
<g>
	<g>
		<path class="st0" d="M136,272c75.1,0,136-60.9,136-136S211.1,0,136,0S0,60.9,0,136S60.9,272,136,272z M136,21.8
			c63,0,114.2,51.2,114.2,114.2S199,250.2,136,250.2S21.8,199,21.8,136S73,21.8,136,21.8z"/>
	</g>
</g>
<path class="st1" d="M202.1,119.8l-44.2-25.6L114,68.9c-4.3-2.4-9.1-3-13.4-1.8c-4.3,1.2-8.2,4-10.7,8.2c-0.9,1.2-1.2,2.7-1.8,4.3
	c-0.3,0.9-0.3,2.1-0.6,3.4c0,0.3,0,0.9,0,1.2V136v51.8c0,4.9,2.1,9.5,5.2,12.5c3.4,3.4,7.6,5.2,12.5,5.2c2.7,0,8.5-2.4,10.1-3.4
	l43.3-25h0.3l0.3-0.3l44.8-25.9c4.3-2.4,7-6.4,8.2-11c0.3-0.9,0.3-2.1,0.3-3.4C212.5,126.5,202.1,119.8,202.1,119.8z M196,137.8
	l-44.2,25.6c-0.3,0-0.6,0.3-0.6,0.3l-43.3,25c-0.3,0.3-1.8,0.9-2.4,0.9s-1.2-0.3-1.8-0.6c-0.3-0.3-0.6-1.2-0.6-1.8v-51.5V84.1v-0.3
	c0-0.3,0-0.3,0-0.6c0,0,0-0.3,0.3-0.3c0,0,0.3-0.3,0.3-0.6c0.3-0.3,0.9-0.6,1.2-0.9c0.6,0,1.2,0,1.5,0c0.3,0.3,0.6,0.3,0.9,0.6
	l43.3,25c0.3,0.3,0.6,0.3,0.6,0.3h0.3l44.2,25.6c0.6,0.3,1.8,1.2,1.8,2.1C197.5,136.3,196.6,137.5,196,137.8z"/>
</svg>
